<svg xmlns="http://www.w3.org/2000/svg" width="120" height="120" viewBox="0 0 120 120"><defs><style>.a{fill:none;}.b{fill:#f3f3f3;}.c{fill:#fff;}.d{fill:#12b7ba;fill-rule:evenodd;}</style></defs><g transform="translate(-300 -1196)"><rect class="a" width="120" height="120" transform="translate(300 1196)"/><path class="b" d="M54.672-6.18A18.77,18.77,0,0,1,54.5-3.41,6.658,6.658,0,0,1,54.007-1.6a2.45,2.45,0,0,1-.722.962,1.541,1.541,0,0,1-.925.292H11.1a1.455,1.455,0,0,1-.867-.292A2.45,2.45,0,0,1,9.51-1.6,6.658,6.658,0,0,1,9.019-3.41,18.77,18.77,0,0,1,8.845-6.18,23.056,23.056,0,0,1,8.99-9.009a6.5,6.5,0,0,1,.462-1.837,2.706,2.706,0,0,1,.722-1.021,1.447,1.447,0,0,1,.925-.321H25.026V-61.3l-12.02,6.708a8.785,8.785,0,0,1-2.167.787,1.417,1.417,0,0,1-1.329-.35,3.044,3.044,0,0,1-.665-1.721,26.1,26.1,0,0,1-.173-3.441q0-1.4.058-2.3a5.653,5.653,0,0,1,.289-1.546,2.827,2.827,0,0,1,.636-1.05,7.283,7.283,0,0,1,1.1-.875l16.065-10.5a2.313,2.313,0,0,1,.722-.379,5.975,5.975,0,0,1,1.127-.233q.693-.087,1.82-.117t2.918-.029q2.2,0,3.554.087a10.052,10.052,0,0,1,2.052.292,1.613,1.613,0,0,1,.925.554,1.555,1.555,0,0,1,.231.875v62.351H52.36a1.567,1.567,0,0,1,.954.321,2.545,2.545,0,0,1,.751,1.021,6.5,6.5,0,0,1,.462,1.837A23.057,23.057,0,0,1,54.672-6.18Z" transform="translate(291.328 1287.348)"/><g transform="translate(7)"><g transform="translate(1)"><rect class="c" width="74.816" height="55.284" rx="17" transform="translate(334.592 1232.591)"/><path d="M8.357,0H69.643a8.777,8.777,0,0,1,5.969,2.386A8.767,8.767,0,0,1,78,8.352V49.716a9.029,9.029,0,0,1-2.388,6.364,11.206,11.206,0,0,1-5.969,2.386H8.357A11.206,11.206,0,0,1,2.388,56.08,9.029,9.029,0,0,1,0,49.716V8.352A8.767,8.767,0,0,1,2.388,2.386,8.777,8.777,0,0,1,8.357,0ZM69.643,3.182H8.357A5.928,5.928,0,0,0,4.776,4.773a5.922,5.922,0,0,0-1.592,3.58V49.716a7.064,7.064,0,0,0,1.592,3.977,5.928,5.928,0,0,0,3.582,1.591H69.643a5.928,5.928,0,0,0,3.582-1.591,7.064,7.064,0,0,0,1.592-3.977V8.352a5.922,5.922,0,0,0-1.592-3.58A5.928,5.928,0,0,0,69.643,3.182Z" transform="translate(333 1231)"/><path class="d" d="M21.582,17H85.255a2.39,2.39,0,0,1,.4,1.591V59.955a7.064,7.064,0,0,1-1.592,3.977,5.928,5.928,0,0,1-3.582,1.591H19.194a1.463,1.463,0,0,1-1.194-.4V20.58A3.566,3.566,0,0,1,21.582,17Z" transform="translate(322.163 1220.761)"/><path class="d" d="M97.929,153H84v5.966H97.929Z" transform="translate(282.429 1138.852)"/><path d="M1.592,112.58A1.82,1.82,0,0,1,0,110.591,1.711,1.711,0,0,1,1.592,109H76.408A1.711,1.711,0,0,1,78,110.591a1.82,1.82,0,0,1-1.592,1.989Z" transform="translate(333 1165.352)"/><path d="M86.592,127.182a1.591,1.591,0,1,1,0-3.182h7.163a1.591,1.591,0,1,1,0,3.182Z" transform="translate(281.827 1156.318)"/><path d="M48.592,171.182a1.591,1.591,0,1,1,0-3.182H86a1.591,1.591,0,1,1,0,3.182Z" transform="translate(304.704 1129.818)"/><path d="M88.9,140.591A1.457,1.457,0,0,1,90.49,139a1.711,1.711,0,0,1,1.592,1.591v11.534a1.711,1.711,0,0,1-1.592,1.591,1.457,1.457,0,0,1-1.592-1.591ZM72.184,152.125a1.457,1.457,0,0,1-1.592,1.591A1.711,1.711,0,0,1,69,152.125V140.591A1.711,1.711,0,0,1,70.592,139a1.457,1.457,0,0,1,1.592,1.591Z" transform="translate(291.459 1147.284)"/></g></g></g></svg>