<svg xmlns="http://www.w3.org/2000/svg" xmlns:xlink="http://www.w3.org/1999/xlink" width="120" height="120" viewBox="0 0 120 120"><defs><style>.a{clip-rule:evenodd;}.b,.g{fill:none;}.c{fill:#f3f3f3;}.d{fill:#fff;}.d,.f,.g{fill-rule:evenodd;}.e{clip-path:url(#a);}.f{fill:#12b7ba;}.h{clip-path:url(#b);}.i{clip-path:url(#c);}</style><clipPath id="a"><path class="a" d="M153.156,149h30.519a4.124,4.124,0,0,1,4.156,4.064v58.763a4.126,4.126,0,0,1-4.156,4.075H153.156A4.126,4.126,0,0,1,149,211.827V153.064A4.124,4.124,0,0,1,153.156,149Z" transform="translate(-149 -149)"/></clipPath><clipPath id="b"><path class="a" d="M149,5190h0Z" transform="translate(-149 -5190)"/></clipPath><clipPath id="c"><path class="a" d="M1655,5861l6.825.011Z" transform="translate(-1655 -5861)"/></clipPath></defs><g transform="translate(-743 -1196)"><rect class="b" width="120" height="120" transform="translate(743 1196)"/><path class="c" d="M55.156-6.424a24.754,24.754,0,0,1-.144,2.894,8.5,8.5,0,0,1-.432,1.959A2.237,2.237,0,0,1,53.831-.49a1.769,1.769,0,0,1-1.037.322H9.937A8.986,8.986,0,0,1,7.748-.4a2.833,2.833,0,0,1-1.5-.906,4.282,4.282,0,0,1-.835-1.959A17.429,17.429,0,0,1,5.156-6.6a26.98,26.98,0,0,1,.173-3.3,9.166,9.166,0,0,1,.634-2.456,11.464,11.464,0,0,1,1.181-2.1,21.2,21.2,0,0,1,1.872-2.251l12.9-14.032A68.817,68.817,0,0,0,28.14-38.2a43.458,43.458,0,0,0,3.687-6.139,22.983,22.983,0,0,0,1.815-5.116,21.707,21.707,0,0,0,.49-4.443,10.962,10.962,0,0,0-.6-3.654,8.609,8.609,0,0,0-1.786-3.011,8.144,8.144,0,0,0-2.967-2.017,11.06,11.06,0,0,0-4.205-.731,18.951,18.951,0,0,0-6.02.877,28.724,28.724,0,0,0-4.608,1.959q-1.987,1.082-3.312,1.988a4.185,4.185,0,0,1-2.074.906,1.261,1.261,0,0,1-.893-.351,2.528,2.528,0,0,1-.6-1.169,13.668,13.668,0,0,1-.374-2.192,33.023,33.023,0,0,1-.144-3.362q0-1.345.086-2.251a10.358,10.358,0,0,1,.259-1.579,4.617,4.617,0,0,1,.461-1.169,6.072,6.072,0,0,1,1.008-1.2A13.7,13.7,0,0,1,11-72.637a32.41,32.41,0,0,1,4.752-2.1,44.932,44.932,0,0,1,6.221-1.725,34.968,34.968,0,0,1,7.085-.7,31.372,31.372,0,0,1,10.167,1.491,20.091,20.091,0,0,1,7.229,4.151,16.654,16.654,0,0,1,4.291,6.314,21.638,21.638,0,0,1,1.411,7.864,38.013,38.013,0,0,1-.691,7.25,27.947,27.947,0,0,1-2.88,7.688,61.042,61.042,0,0,1-6.164,9.121A145.531,145.531,0,0,1,31.884-21.684l-8.7,9.062H52.564a1.792,1.792,0,0,1,1.066.351,2.724,2.724,0,0,1,.835,1.082,6.888,6.888,0,0,1,.518,1.929A20.172,20.172,0,0,1,55.156-6.424Z" transform="translate(737.844 1288.168)"/><g transform="translate(3)"><g transform="translate(0 0.215)"><path class="d" d="M153.156,149h30.519a4.124,4.124,0,0,1,4.156,4.064v58.763a4.126,4.126,0,0,1-4.156,4.075H153.156A4.126,4.126,0,0,1,149,211.827V153.064A4.124,4.124,0,0,1,153.156,149Z" transform="translate(636.584 1083.334)"/><g class="e" transform="translate(785.584 1232.334)"><g transform="translate(5.219 4.834)"><path class="f" d="M642.69,614h29.35v57.994a2.5,2.5,0,0,1-.765,1.788,2.6,2.6,0,0,1-1.818.738H640V616.63A2.67,2.67,0,0,1,642.69,614Z" transform="translate(-640 -614)"/></g></g><path class="g" d="M153.156,149h30.519a4.124,4.124,0,0,1,4.156,4.064v58.763a4.126,4.126,0,0,1-4.156,4.075H153.156A4.126,4.126,0,0,1,149,211.827V153.064A4.124,4.124,0,0,1,153.156,149Z" transform="translate(636.584 1083.334)"/><path d="M5.74,0H36.26a5.788,5.788,0,0,1,4.05,1.653h0A5.536,5.536,0,0,1,42,5.613V64.376a5.541,5.541,0,0,1-1.69,3.971A5.769,5.769,0,0,1,36.26,70H5.74a5.788,5.788,0,0,1-4.05-1.653l-.1-.094A5.531,5.531,0,0,1,0,64.376V5.613a5.536,5.536,0,0,1,1.69-3.96h0A5.769,5.769,0,0,1,5.74,0ZM36.26,3.1H5.74a2.6,2.6,0,0,0-1.818.738,2.488,2.488,0,0,0-.755,1.778V64.376A2.461,2.461,0,0,0,3.859,66.1l.064.062A2.6,2.6,0,0,0,5.74,66.9H36.26a2.6,2.6,0,0,0,1.818-.738,2.5,2.5,0,0,0,.765-1.788V5.613a2.5,2.5,0,0,0-.765-1.778v-.01A2.62,2.62,0,0,0,36.26,3.1Z" transform="translate(784 1230.785)"/><g class="h" transform="translate(785.584 1284.735)"><g transform="translate(5.219 -4576)"><path class="f" d="M642.69,614h29.35V6193c0,67-.3,128-.765,172s-1.116,71-1.818,71H640V867C640,728,641.212,614,642.69,614Z" transform="translate(-640 -614)"/></g></g><line class="b" x2="38.271" transform="translate(785.584 1284.783)"/><path d="M1.584,5045.087a1.544,1.544,0,1,1,0-3.087H39.81a1.544,1.544,0,1,1,0,3.087Z" transform="translate(784 -3758.803)"/><g class="i" transform="translate(801.593 1291.71)"><g transform="translate(-10.79 -54.543)"><path class="f" d="M642.69,614h29.35v57.994a2.5,2.5,0,0,1-.765,1.788,2.6,2.6,0,0,1-1.818.738H640V616.63A2.67,2.67,0,0,1,642.69,614Z" transform="translate(-640 -614)"/></g></g><line class="b" x2="6.598" transform="translate(801.684 1291.752)"/><path d="M1507.584,5716.077a1.539,1.539,0,1,1,0-3.077l6.825.011a1.539,1.539,0,1,1,0,3.077Z" transform="translate(-705.991 -4422.828)"/></g></g></g></svg>