<svg xmlns="http://www.w3.org/2000/svg" xmlns:xlink="http://www.w3.org/1999/xlink" width="120" height="120" viewBox="0 0 120 120"><defs><style>.a{clip-rule:evenodd;}.b,.g{fill:none;}.c{fill:#f3f3f3;}.d,.j{fill:#fff;}.d,.g{fill-rule:evenodd;}.e{clip-path:url(#a);}.f{fill:#12b7ba;}.h{clip-path:url(#b);}.i{clip-path:url(#c);}</style><clipPath id="a"><path class="a" d="M3354,13862h8.307a1.991,1.991,0,0,1,2,1.974v28.516a1.993,1.993,0,0,1-2,1.976H3354a2,2,0,0,1-2-1.976v-28.516A1.993,1.993,0,0,1,3354,13862Z" transform="translate(-3352 -13862)"/></clipPath><clipPath id="b"><path class="a" d="M12209,6965h8.308a1.994,1.994,0,0,1,2,1.974v42.263a1.994,1.994,0,0,1-2,1.976H12209a1.994,1.994,0,0,1-2-1.976v-42.263A1.994,1.994,0,0,1,12209,6965Z" transform="translate(-12206.999 -6965)"/></clipPath><clipPath id="c"><path class="a" d="M21063,660h8.3a2,2,0,0,1,2,1.975V716.8a2,2,0,0,1-2,1.975h-8.3a2,2,0,0,1-2-1.975V661.975A2,2,0,0,1,21063,660Z" transform="translate(-21061 -660)"/></clipPath></defs><g transform="translate(-1264 -1196)"><rect class="b" width="120" height="120" transform="translate(1264 1196)"/><path class="c" d="M54.98-22.568a22.476,22.476,0,0,1-2.139,10.012,20.722,20.722,0,0,1-5.954,7.334A26.9,26.9,0,0,1,37.755-.711,41.578,41.578,0,0,1,26.137.832,44.063,44.063,0,0,1,18.969.279a42.829,42.829,0,0,1-5.925-1.368A26.983,26.983,0,0,1,8.8-2.777,12.365,12.365,0,0,1,6.6-4.116a3.1,3.1,0,0,1-.78-1.048,8.671,8.671,0,0,1-.462-1.368,11.458,11.458,0,0,1-.289-1.979Q4.98-9.7,4.98-11.392a11.041,11.041,0,0,1,.462-3.871A1.494,1.494,0,0,1,6.83-16.34a5.144,5.144,0,0,1,1.994.786,35.068,35.068,0,0,0,3.613,1.688,42.375,42.375,0,0,0,5.145,1.688,26.091,26.091,0,0,0,6.705.786,18.866,18.866,0,0,0,5.607-.757,12.446,12.446,0,0,0,4.133-2.125,8.514,8.514,0,0,0,2.543-3.318,10.872,10.872,0,0,0,.838-4.337A10.707,10.707,0,0,0,36.4-26.643a9.677,9.677,0,0,0-3.006-3.58,14.758,14.758,0,0,0-5.029-2.3,27.718,27.718,0,0,0-7.139-.815H14.749a3.5,3.5,0,0,1-1.272-.2,1.733,1.733,0,0,1-.867-.844,5.163,5.163,0,0,1-.491-1.775,24.155,24.155,0,0,1-.145-2.94,21.516,21.516,0,0,1,.145-2.765,4.907,4.907,0,0,1,.462-1.659,1.828,1.828,0,0,1,.809-.815,2.749,2.749,0,0,1,1.185-.233h6.532a20.6,20.6,0,0,0,5.954-.786A12.4,12.4,0,0,0,31.426-47.6a9.592,9.592,0,0,0,2.688-3.522,11.06,11.06,0,0,0,.925-4.569,10.392,10.392,0,0,0-.636-3.638A8.194,8.194,0,0,0,32.524-62.3a8.7,8.7,0,0,0-3.208-1.979A13.31,13.31,0,0,0,24.691-65a17.512,17.512,0,0,0-5.665.9,35.833,35.833,0,0,0-4.769,1.979q-2.11,1.077-3.584,2.008a4.889,4.889,0,0,1-2.168.931,1.568,1.568,0,0,1-.809-.2,1.518,1.518,0,0,1-.578-.786,6.682,6.682,0,0,1-.347-1.688,28.467,28.467,0,0,1-.116-2.852q0-1.455.058-2.416a8.115,8.115,0,0,1,.231-1.6,4.888,4.888,0,0,1,.434-1.106,4.556,4.556,0,0,1,.838-1.019,16.363,16.363,0,0,1,2.37-1.659A27.545,27.545,0,0,1,15.1-74.665a39.554,39.554,0,0,1,6.272-1.775,38.5,38.5,0,0,1,7.717-.728,32.965,32.965,0,0,1,9.624,1.281,19.706,19.706,0,0,1,7.052,3.7A15.466,15.466,0,0,1,50.1-66.254a20.405,20.405,0,0,1,1.474,7.946,22.748,22.748,0,0,1-.867,6.4,17.269,17.269,0,0,1-2.543,5.3,15.471,15.471,0,0,1-4.191,3.958,18.961,18.961,0,0,1-5.809,2.445v.175a21.515,21.515,0,0,1,7.052,2.008A18.078,18.078,0,0,1,50.5-34.152a16.565,16.565,0,0,1,3.324,5.268A17.1,17.1,0,0,1,54.98-22.568Z" transform="translate(1259.02 1288.168)"/><g transform="translate(2)"><path class="d" d="M3354,13862h8.307a1.991,1.991,0,0,1,2,1.974v28.516a1.993,1.993,0,0,1-2,1.976H3354a2,2,0,0,1-2-1.976v-28.516A1.993,1.993,0,0,1,3354,13862Z" transform="translate(-2047.227 -12603.369)"/><g class="e" transform="translate(1304.773 1258.631)"><g transform="translate(3.148 3.247)"><path class="f" d="M2,0h8.3a1.989,1.989,0,0,1,2,1.975V30.489a1.989,1.989,0,0,1-2,1.975H2a1.989,1.989,0,0,1-2-1.975V1.975A1.989,1.989,0,0,1,2,0Z"/></g></g><path class="g" d="M3354,13862h8.307a1.991,1.991,0,0,1,2,1.974v28.516a1.993,1.993,0,0,1-2,1.976H3354a2,2,0,0,1-2-1.976v-28.516A1.993,1.993,0,0,1,3354,13862Z" transform="translate(-2047.227 -12603.369)"/><path d="M2695.336,13201h8.307a3.345,3.345,0,0,1,2.352.967l0,0a3.256,3.256,0,0,1,.98,2.32v28.516a3.261,3.261,0,0,1-.98,2.326,3.345,3.345,0,0,1-2.356.965h-8.307a3.347,3.347,0,0,1-2.352-.965l-.01-.01a3.259,3.259,0,0,1-.974-2.316v-28.516a3.252,3.252,0,0,1,.978-2.324A3.352,3.352,0,0,1,2695.336,13201Zm8.307,2.634h-8.307a.669.669,0,0,0-.471.193.65.65,0,0,0-.2.464v28.516a.645.645,0,0,0,.192.465l0,0a.669.669,0,0,0,.471.191h8.307a.67.67,0,0,0,.469-.2.656.656,0,0,0,.2-.465v-28.516a.664.664,0,0,0-.192-.464l-.006,0A.665.665,0,0,0,2703.642,13203.634Z" transform="translate(-1388.561 -11943.687)"/><path class="d" d="M12209,6965h8.308a1.994,1.994,0,0,1,2,1.974v42.263a1.994,1.994,0,0,1-2,1.976H12209a1.994,1.994,0,0,1-2-1.976v-42.263A1.994,1.994,0,0,1,12209,6965Z" transform="translate(-10884.334 -5720.117)"/><g class="h" transform="translate(1322.665 1244.883)"><g transform="translate(3.72 3.53)"><path class="f" d="M2,0h8.3a1.989,1.989,0,0,1,2,1.975V44.237a1.989,1.989,0,0,1-2,1.975H2a1.989,1.989,0,0,1-2-1.975V1.975A1.989,1.989,0,0,1,2,0Z"/></g></g><path class="g" d="M12209,6965h8.308a1.994,1.994,0,0,1,2,1.974v42.263a1.994,1.994,0,0,1-2,1.976H12209a1.994,1.994,0,0,1-2-1.976v-42.263A1.994,1.994,0,0,1,12209,6965Z" transform="translate(-10884.334 -5720.117)"/><path d="M11549.336,6304h8.307a3.339,3.339,0,0,1,2.351.967l.007,0a3.259,3.259,0,0,1,.979,2.32v42.263a3.261,3.261,0,0,1-.979,2.326,3.347,3.347,0,0,1-2.357.965h-8.307a3.356,3.356,0,0,1-2.353-.965l-.008-.01a3.264,3.264,0,0,1-.977-2.316v-42.263a3.263,3.263,0,0,1,.98-2.324A3.35,3.35,0,0,1,11549.336,6304Zm8.307,2.633h-8.307a.672.672,0,0,0-.47.2.65.65,0,0,0-.2.462v42.263a.651.651,0,0,0,.192.464l.006,0a.665.665,0,0,0,.47.191h8.307a.676.676,0,0,0,.471-.2.655.655,0,0,0,.2-.464v-42.263a.661.661,0,0,0-.192-.462l-.006-.006A.684.684,0,0,0,11557.643,6306.633Z" transform="translate(-10224.671 -5060.434)"/><path class="d" d="M21063,660h8.3a2,2,0,0,1,2,1.975V716.8a2,2,0,0,1-2,1.975h-8.3a2,2,0,0,1-2-1.975V661.975A2,2,0,0,1,21063,660Z" transform="translate(-19720.445 572.316)"/><g class="i" transform="translate(1340.555 1232.316)"><g transform="translate(3.732 3.53)"><path class="f" d="M2,0h8.3a1.989,1.989,0,0,1,2,1.975V56.8a1.989,1.989,0,0,1-2,1.975H2A1.989,1.989,0,0,1,0,56.8V1.975A1.989,1.989,0,0,1,2,0Z"/></g></g><path class="g" d="M21063,660h8.3a2,2,0,0,1,2,1.975V716.8a2,2,0,0,1-2,1.975h-8.3a2,2,0,0,1-2-1.975V661.975A2,2,0,0,1,21063,660Z" transform="translate(-19720.445 572.316)"/><path d="M20404.336,0h8.307a3.347,3.347,0,0,1,2.352.965l.008.006a3.262,3.262,0,0,1,.977,2.32V58.12a3.262,3.262,0,0,1-.977,2.32l-.008.006a3.339,3.339,0,0,1-2.352.965h-8.307a3.342,3.342,0,0,1-2.352-.965l-.006-.006a3.264,3.264,0,0,1-.979-2.32V3.291a3.264,3.264,0,0,1,.979-2.32l.006-.006A3.351,3.351,0,0,1,20404.336,0Zm8.307,2.633h-8.307a.671.671,0,0,0-.469.189l0,0a.653.653,0,0,0-.2.464V58.12a.649.649,0,0,0,.2.464l0,.006a.68.68,0,0,0,.469.189h8.307a.685.685,0,0,0,.471-.189l0-.006a.648.648,0,0,0,.193-.464V3.291a.651.651,0,0,0-.193-.464l0,0A.676.676,0,0,0,20412.643,2.633Z" transform="translate(-19061.779 1231)"/><path d="M1.334,29491.631a1.316,1.316,0,1,1,0-2.631H62.021a1.316,1.316,0,1,1,0,2.631Z" transform="translate(1298 -28199.221)"/><g transform="translate(1332.113 1267.571)"><ellipse class="j" cx="15.609" cy="15.398" rx="15.609" ry="15.398" transform="translate(1.334 1.316)"/><path d="M16899.943,18347a17.015,17.015,0,0,1,11.982,4.9,16.555,16.555,0,0,1,0,23.635,17.1,17.1,0,0,1-23.965,0,16.555,16.555,0,0,1,0-23.635A17.011,17.011,0,0,1,16899.943,18347Zm10.094,6.758a14.412,14.412,0,0,0-20.187,0,13.945,13.945,0,0,0,0,19.914,14.412,14.412,0,0,0,20.188,0,13.945,13.945,0,0,0,0-19.914Z" transform="translate(-16883 -18347)"/><g transform="translate(9.25 8.854)"><path d="M21463.379,22803.277a1.34,1.34,0,0,1-1.879-.035,1.3,1.3,0,0,1,.035-1.857l12.541-11.893a1.338,1.338,0,0,1,1.877.037,1.3,1.3,0,0,1,.373.91h0v10.33a1.333,1.333,0,0,1-2.666,0v-7.244Z" transform="translate(-21461.127 -22789.125)"/><path d="M22486.33,22792.709a1.311,1.311,0,1,1-.021-2.621l10.473-.111a1.312,1.312,0,1,1,.021,2.623Z" transform="translate(-22482.922 -22789.975)"/></g></g></g></g></svg>