<svg xmlns="http://www.w3.org/2000/svg" xmlns:xlink="http://www.w3.org/1999/xlink" width="50" height="50" viewBox="0 0 50 50"><defs><style>.a{clip-rule:evenodd;}.b,.f{fill:none;}.c{fill:#fff;}.c,.f{fill-rule:evenodd;}.d{clip-path:url(#a);}.e{fill:#12b7ba;}</style><clipPath id="a"><path class="a" d="M290.458,1414h31.29a1.478,1.478,0,0,1,1.461,1.487v31.636a1.478,1.478,0,0,1-1.461,1.487h-31.29a1.475,1.475,0,0,1-1.458-1.487v-31.636A1.475,1.475,0,0,1,290.458,1414Z" transform="translate(-289 -1414)"/></clipPath></defs><g transform="translate(-300 -2710)"><rect class="b" width="50" height="50" transform="translate(300 2710)"/><path class="c" d="M290.458,1414h31.29a1.478,1.478,0,0,1,1.461,1.487v31.636a1.478,1.478,0,0,1-1.461,1.487h-31.29a1.475,1.475,0,0,1-1.458-1.487v-31.636A1.475,1.475,0,0,1,290.458,1414Z" transform="translate(18.897 1305.475)"/><g class="d" transform="translate(307.897 2719.475)"><g transform="translate(3.066 10.665)"><path class="e" d="M1.458,0H32.751A1.458,1.458,0,0,1,34.21,1.458V32.475a1.458,1.458,0,0,1-1.458,1.458H1.458A1.458,1.458,0,0,1,0,32.475V1.458A1.458,1.458,0,0,1,1.458,0Z"/></g></g><path class="f" d="M290.458,1414h31.29a1.478,1.478,0,0,1,1.461,1.487v31.636a1.478,1.478,0,0,1-1.461,1.487h-31.29a1.475,1.475,0,0,1-1.458-1.487v-31.636A1.475,1.475,0,0,1,290.458,1414Z" transform="translate(18.897 1305.475)"/><path d="M2.355,1125h31.29a2.322,2.322,0,0,1,1.666.706,2.419,2.419,0,0,1,.689,1.7v31.636a2.419,2.419,0,0,1-.689,1.7,2.327,2.327,0,0,1-1.666.706H2.355a2.315,2.315,0,0,1-1.663-.706,2.408,2.408,0,0,1-.692-1.7V1127.4a2.409,2.409,0,0,1,.692-1.7l.059-.057A2.322,2.322,0,0,1,2.355,1125Zm31.29,1.829H2.355a.56.56,0,0,0-.369.136l-.028.032a.575.575,0,0,0-.164.4v31.636a.575.575,0,0,0,.164.405.556.556,0,0,0,.4.171h31.29a.556.556,0,0,0,.4-.171.578.578,0,0,0,.168-.405V1127.4a.577.577,0,0,0-.168-.4A.552.552,0,0,0,33.645,1126.829Z" transform="translate(307 1593.56)"/><rect width="5.12" height="5.222" transform="translate(330.604 2735.489)"/><rect width="5.12" height="5.222" transform="translate(323.579 2735.489)"/><rect width="5.12" height="5.222" transform="translate(330.604 2743.483)"/><rect width="5.12" height="5.222" transform="translate(323.579 2743.483)"/><rect width="5.12" height="5.222" transform="translate(316.554 2743.483)"/><path d="M.9,3397.829A.915.915,0,0,1,.9,3396h34.21a.915.915,0,0,1,0,1.829Z" transform="translate(307 -670.252)"/><path d="M2056,.915a.9.9,0,1,1,1.793,0c0,4.741.118,5.836.118,5.839a.911.911,0,0,1-.77,1.022.9.9,0,0,1-1-.785S2056,5.725,2056,.915Z" transform="translate(-1742.62 2715)"/><path d="M4306,.915a.9.9,0,1,1,1.791,0c0,4.741.118,5.836.118,5.839a.892.892,0,1,1-1.769.237S4306,5.725,4306,.915Z" transform="translate(-3985.639 2715)"/><path d="M6555,.915a.9.9,0,1,1,1.793,0c0,4.741.117,5.836.117,5.839a.911.911,0,0,1-.77,1.022.9.9,0,0,1-1-.785S6555,5.725,6555,.915Z" transform="translate(-6227.661 2715)"/><path d="M8805,.915a.9.9,0,1,1,1.79,0c0,4.741.119,5.836.119,5.839a.908.908,0,0,1-.771,1.022.9.9,0,0,1-1-.785S8805,5.725,8805,.915Z" transform="translate(-8470.68 2715)"/></g></svg>