<svg xmlns="http://www.w3.org/2000/svg" width="50" height="50" viewBox="0 0 50 50"><defs><style>.a{fill:none;}.b{fill:#fff;}.b,.c{fill-rule:evenodd;}.c,.d{fill:#12b7ba;}</style></defs><g transform="translate(-975 -2695)"><rect class="a" width="50" height="50" transform="translate(975 2695)"/><g transform="translate(0 -0.001)"><path class="b" d="M2364,20872h36.342v25.633a2.319,2.319,0,0,1-2.321,2.3h-31.7a2.319,2.319,0,0,1-2.321-2.3Z" transform="translate(-1382.171 -18162.756)"/><path d="M.829,18509H37.171a.826.826,0,0,1,.829.822v25.635a3.1,3.1,0,0,1-.925,2.2,3.165,3.165,0,0,1-2.225.914H3.15a3.162,3.162,0,0,1-2.222-.914h0a3.1,3.1,0,0,1-.925-2.2v-25.635A.826.826,0,0,1,.829,18509Zm35.513,1.645H1.657v24.813a1.47,1.47,0,0,0,.439,1.041,1.5,1.5,0,0,0,1.053.438h31.7a1.5,1.5,0,0,0,1.053-.437,1.469,1.469,0,0,0,.439-1.041Z" transform="translate(981 -15800.572)"/><path class="c" d="M10310.357,28147h32.371v23.109a1.457,1.457,0,0,1-.439,1.041,1.487,1.487,0,0,1-1.053.436H10310v-24.23A.358.358,0,0,1,10310.357,28147Z" transform="translate(-9325.385 -25435.229)"/><path d="M69500.977,18509.822a.828.828,0,0,1,1.656,0v6.189a6.95,6.95,0,0,1-2.078,4.951,7.085,7.085,0,0,1-5.008,2.068h-5.711a.821.821,0,1,1,0-1.643h5.711a5.447,5.447,0,0,0,3.836-1.582,5.334,5.334,0,0,0,1.594-3.795Z" transform="translate(-68483.633 -15800.572)"/><path d="M31510.957,0a8.155,8.155,0,0,1,5.477,2.078,7.379,7.379,0,0,1,2.473,5.13.823.823,0,0,1-.789.856h-.035v0h-14.252a.825.825,0,0,1-.83-.821.972.972,0,0,1,.008-.108,7.394,7.394,0,0,1,2.469-5.061A8.162,8.162,0,0,1,31510.957,0Zm4.363,3.29a6.6,6.6,0,0,0-8.73,0,5.853,5.853,0,0,0-1.826,3.136h12.383A5.815,5.815,0,0,0,31515.32,3.29Z" transform="translate(-30510.955 2702)"/><rect class="d" width="5.427" height="5.374" rx="2.687" transform="translate(997.036 2718.944)"/><path d="M43374.57,46437h3.945a1.591,1.591,0,0,1,1.113.457,1.529,1.529,0,0,1,.457,1.094v3.91a1.529,1.529,0,0,1-.457,1.094l-.008,0a1.559,1.559,0,0,1-1.105.453h-3.945a1.567,1.567,0,0,1-1.57-1.551v-3.91a1.555,1.555,0,0,1,.461-1.094h0A1.579,1.579,0,0,1,43374.57,46437Zm3.859,1.641h-3.77v3.73h3.77Z" transform="translate(-42376.789 -43718.875)"/><path d="M0,18509.822a.829.829,0,0,1,1.657,0v6.189a5.338,5.338,0,0,0,1.6,3.795,5.434,5.434,0,0,0,3.829,1.582h5.725a.821.821,0,1,1,0,1.643H7.082a7.085,7.085,0,0,1-5-2.068A6.944,6.944,0,0,1,0,18516.012Z" transform="translate(981 -15800.572)"/></g></g></svg>