<svg xmlns="http://www.w3.org/2000/svg" xmlns:xlink="http://www.w3.org/1999/xlink" width="50" height="50" viewBox="0 0 50 50"><defs><style>.a{clip-rule:evenodd;}.b,.f{fill:none;}.c{fill:#fff;}.c,.e,.f{fill-rule:evenodd;}.d{clip-path:url(#a);}.e{fill:#10bfbb;}</style><clipPath id="a"><path class="a" d="M2419.145,2391c4.508,5.909,9.993,8.066,16.145,7.668,0,18.062-3.955,24.839-16.145,30.618-12.19-5.778-16.145-12.555-16.145-30.618C2409.226,2398.857,2414.7,2396.591,2419.145,2391Z" transform="translate(-2403 -2391)"/></clipPath></defs><g transform="translate(-973 -2548)"><rect class="b" width="50" height="50" transform="translate(973 2548)"/><path class="c" d="M2419.145,2391c4.508,5.909,9.993,8.066,16.145,7.668,0,18.062-3.955,24.839-16.145,30.618-12.19-5.778-16.145-12.555-16.145-30.618C2409.226,2398.857,2414.7,2396.591,2419.145,2391Z" transform="translate(-1421.144 162.856)"/><g class="d" transform="translate(981.856 2553.856)"><g transform="translate(0.795 3.309)"><path class="e" d="M4650.351,11637c4.286,5.618,9.5,7.669,15.351,7.291,0,17.173-3.761,23.617-15.351,29.111-11.591-5.494-15.351-11.938-15.351-29.111A17.967,17.967,0,0,0,4650.351,11637Z" transform="translate(-4635 -11637)"/></g></g><path class="f" d="M2419.145,2391c4.508,5.909,9.993,8.066,16.145,7.668,0,18.062-3.955,24.839-16.145,30.618-12.19-5.778-16.145-12.555-16.145-30.618C2409.226,2398.857,2414.7,2396.591,2419.145,2391Z" transform="translate(-1421.144 162.856)"/><path d="M17.679.359A18.813,18.813,0,0,0,24.808,6.3a17.066,17.066,0,0,0,8.285,1.4.856.856,0,0,1,.906.8v.054c0,9.175-1.016,15.509-3.6,20.322-2.611,4.858-6.769,8.1-13.032,11.072a.848.848,0,0,1-.736,0C10.371,36.97,6.215,33.726,3.6,28.87,1.018,24.057,0,17.723,0,8.548a.858.858,0,0,1,.856-.86l.1.005A18.4,18.4,0,0,0,9.241,6.1a19.486,19.486,0,0,0,7.1-5.757.848.848,0,0,1,1.2-.134A.911.911,0,0,1,17.679.359Zm6.427,7.5a19.974,19.974,0,0,1-7.121-5.627A20.7,20.7,0,0,1,9.949,7.661,19.766,19.766,0,0,1,1.714,9.415c.062,8.417,1.037,14.254,3.395,18.641S11.277,35.454,17,38.215c5.724-2.761,9.529-5.762,11.892-10.159,2.355-4.381,3.331-10.21,3.394-18.611A18.41,18.41,0,0,1,24.106,7.862Z" transform="translate(981 2552.977)"/><path d="M29775.188,40055.594a.853.853,0,1,1,1.311-1.094l4.865,5.891,7.033-9.141a.851.851,0,0,1,1.2-.152.862.862,0,0,1,.154,1.2l-7.686,9.984a.961.961,0,0,1-.131.137.85.85,0,0,1-1.2-.113Z" transform="translate(-28783.387 -37483.582)"/></g></svg>