<svg xmlns="http://www.w3.org/2000/svg" width="50" height="50" viewBox="0 0 50 50">
  <g id="support" transform="translate(-295 -2548)">
    <rect id="Прямоугольник_356" data-name="Прямоугольник 356" width="50" height="50" transform="translate(295 2548)" fill="none"/>
    <g id="Сгруппировать_320" data-name="Сгруппировать 320" transform="translate(0 -2)">
      <path id="Контур_2810" data-name="Контур 2810" d="M1541.233,1528.549c8.485-3.861,18.695.231,18.721,9.769.016,6.137-1.361,6.19-1.361,6.19,3.594,4.315,1.378,6.911-3.34,6.941,2.225,3.388-3.108,6.109-5.225,3.315,2.635,4.052-.58,5.9-3.972,4.919,1.948,4.448-1.616,6.491-4.917,4.162a31.993,31.993,0,0,1-8.077-6.212c-4.982-5.053-10.811-13.131-10.953-16.976C1521.689,1529.259,1531.337,1524.727,1541.233,1528.549Z" transform="translate(-1220.906 1029.084)" fill="#fff" fill-rule="evenodd"/>
      <path id="Контур_2811" data-name="Контур 2811" d="M329.331,82.912a.931.931,0,1,1-.95,1.6,11.57,11.57,0,0,0-7.408-1.4,12.062,12.062,0,0,0-6.89,3.322l-.058.054a11.907,11.907,0,0,0-3.26,6.689,11.651,11.651,0,0,0,1.272,7.337.931.931,0,0,1-1.629.9,13.5,13.5,0,0,1-1.491-8.5A13.773,13.773,0,0,1,312.7,85.18l.05-.054a13.944,13.944,0,0,1,7.974-3.855A13.442,13.442,0,0,1,329.331,82.912Zm-1.7,36.292a.926.926,0,0,1-.018-1.313.936.936,0,0,1,1.319-.018l.483.469a2.247,2.247,0,0,0,3.82-1.633,2.228,2.228,0,0,0-.675-1.576.87.87,0,0,1,.022-1.356.918.918,0,0,1,1.283.024A2.244,2.244,0,0,0,337,110.593a.931.931,0,0,1,1.3-1.331,2.246,2.246,0,1,0,3.144-3.209.876.876,0,0,1,.045-1.377.864.864,0,0,1,1.255.045,2.247,2.247,0,0,0,3.82-1.633,2.229,2.229,0,0,0-.675-1.576c-4.313-4.187-8.537-8.488-12.8-12.735a.926.926,0,0,1,0-1.313.936.936,0,0,1,1.319,0L346.13,99.15a.953.953,0,0,1,.094.093l.966.938a4.094,4.094,0,0,1-2.821,7.03c-.137,0-.274,0-.41-.015.015.136.023.273.025.41a4.089,4.089,0,0,1-4.059,4.145,4.007,4.007,0,0,1-.41-.016c.015.136.023.273.025.41a4.09,4.09,0,0,1-4.059,4.145,4.011,4.011,0,0,1-.41-.016,4.011,4.011,0,0,1,.026.411,4.119,4.119,0,0,1-6.983,2.986Z" transform="translate(-8.529 2473.92)"/>
      <path id="Контур_2812" data-name="Контур 2812" d="M4295.662,5050.26a2.875,2.875,0,0,0,.257.285l1.1,1.068,0,0,.4.389a.932.932,0,0,1,.367.22l.483.47a2.253,2.253,0,0,0,1.222.608v0a2.279,2.279,0,0,0,1.364-.206,2.276,2.276,0,0,0,.82-.7,2.245,2.245,0,0,0,.305-.607,2.221,2.221,0,0,0,.109-.67,2.449,2.449,0,0,0-.171-.9,2.234,2.234,0,0,0-.545-.768.932.932,0,0,1,1.34-1.294,2.184,2.184,0,0,0,1.465.634,2.337,2.337,0,0,0,.684-.071,2.244,2.244,0,0,0,.622-.269l.051-.029a2.24,2.24,0,0,0,.419-.365,2.2,2.2,0,0,0,.349-.508,2.3,2.3,0,0,0,.2-1.368,2.213,2.213,0,0,0-.676-1.266.929.929,0,0,1,1.28-1.341l0,0c.077.064.135.128.216.193a2.389,2.389,0,0,0,.335.222,2.3,2.3,0,0,0,.708.239,2.255,2.255,0,0,0,1.9-.576,2.188,2.188,0,0,0,.461-.613,2.216,2.216,0,0,0,.23-1.339,2.187,2.187,0,0,0-.72-1.354.926.926,0,0,1,.109-1.31.935.935,0,0,1,1.206,0,2.328,2.328,0,0,0,.456.363,2.4,2.4,0,0,0,1.616.277,2.239,2.239,0,0,0,1.314-.813l.041-.052-.7-.681h0l-8.224-8.137-3.661-3.651-3.661-3.65c-4.261-4.25-10.354-4.558-14.617-.312h0c-4.267,4.244-4.624,11.761-.362,16.012l3.66,3.651,3.662,3.651Z" transform="translate(-3977.391 -2460.432)" fill="#12b7ba" fill-rule="evenodd"/>
      <path id="Контур_2813" data-name="Контур 2813" d="M18035.559,2400.6a5.116,5.116,0,0,1-.848-.486h0a2.418,2.418,0,0,1-.605-2.3c.023-.08.055-.156.086-.234a4,4,0,0,1,.889-1.129l0,0c.086-.083.17-.169.244-.246.986-1.018,1.861-1.92,2.744-2.825l1.645-1.692,0,0h0a9.651,9.651,0,0,1,6.52-2.81c.344-.017.688-.019,1.029,0,5.713,1.145,10.631,7.764,8.033,13.954l-9.475-9.436a.938.938,0,0,0-1.322,0l-.047.051-5.566,5.576c-.133.132-.246.252-.363.371-.016.017-.031.035-.045.053a3.85,3.85,0,0,1-1.646,1.2,2.282,2.282,0,0,1-1.277-.032Z" transform="translate(-17719.936 168.01)" fill="#12b7ba" fill-rule="evenodd"/>
      <path id="Контур_2814" data-name="Контур 2814" d="M3697.159,23817.8a2.555,2.555,0,0,1-2.814-.543h0a2.454,2.454,0,0,1-.708-1.963l1.808-1.754a3.641,3.641,0,0,1,.3-.275,2.141,2.141,0,0,1,2.836.188v0l.009.006v0h0l.032.031a2.123,2.123,0,0,1-.076,2.959Z" transform="translate(-3390.74 -21239.275)" fill="#12b7ba" fill-rule="evenodd"/>
      <g id="Сгруппировать_309" data-name="Сгруппировать 309" transform="translate(304.276 2576.047)">
        <path id="Контур_2815" data-name="Контур 2815" d="M6674.257,28232.975h0a3.053,3.053,0,0,1-.055,4.314l-2.326,2.26a3.083,3.083,0,0,1-4.331-.057h0a3.049,3.049,0,0,1,.055-4.312l2.326-2.26A3.082,3.082,0,0,1,6674.257,28232.975Z" transform="translate(-6665.744 -28231.127)" fill="#fff" fill-rule="evenodd"/>
        <path id="_1" data-name="1" d="M5479.512,27037.846h0l.669-.648Zm.6,4.982-1.306-1.334h0l.077-.08.071-.08.066-.08.062-.088.056-.086.051-.092.047-.092.042-.094.038-.1.033-.1.028-.1.023-.1.018-.1.014-.1.008-.1,0-.1v-.1l-.006-.1-.012-.1-.016-.1-.02-.1-.026-.1-.03-.1-.036-.1-.04-.1-.044-.09-.05-.092-.055-.09-.058-.088-.064-.086-.07-.08-.074-.082,1.339-1.3.139.148.13.156.122.16.112.164.1.17.094.174.084.176.076.18.065.182.057.188.048.186.039.188.03.189.02.189.012.188,0,.191-.007.191-.016.191-.026.191-.033.188-.044.186-.052.188-.062.18-.07.182-.08.178-.089.174-.1.172-.107.164-.116.164-.125.156-.134.152-.143.146Zm-3.632.926,2.326-2.26,1.306,1.334-2.326,2.26Zm-4.347,1.262,1.339-1.3h0l.078.076.081.07.083.066.086.061.088.057.09.051.092.049.095.041.1.039.1.031.1.027.1.023.1.018.1.014.1.01.1,0,.1,0,.1,0,.1-.01.1-.016.1-.021.1-.025.1-.031.1-.033.095-.041.094-.043.092-.053.09-.051.087-.061.085-.062.083-.07.08-.072,1.306,1.334-.15.137-.155.129-.161.121-.166.111-.17.1-.174.094-.177.082-.181.078-.183.064-.186.057-.187.047-.188.037-.19.029-.19.021-.191.01-.192,0-.191-.006-.192-.014-.19-.027-.189-.033-.188-.043-.186-.051-.184-.062-.181-.07-.178-.08-.175-.09-.171-.1-.167-.107-.163-.115-.158-.125-.152-.133-.146-.143Zm.669-.65h0l-.669.65Zm-.6-4.98,1.3,1.336h0l-.076.076-.071.082-.065.082-.062.086-.056.088-.053.09-.047.092-.042.1-.038.094-.033.1-.027.1-.023.1-.018.1-.014.1-.008.1,0,.1v.1l.006.1.011.1.016.1.021.1.025.1.03.1.035.1.04.094.044.094.05.09.054.092.06.088.064.084.069.082.075.08-1.339,1.3-.14-.15-.129-.154-.121-.158-.113-.168-.1-.168-.093-.174-.085-.176-.075-.18-.066-.184-.057-.184-.048-.187-.039-.186-.029-.191-.021-.187-.011-.191,0-.191.007-.191.016-.191.025-.187.034-.189.043-.186.053-.186.061-.184.072-.178.079-.182.09-.172.1-.172.107-.168.116-.16.125-.158.135-.152.143-.145Zm3.631-.926-2.327,2.262-1.3-1.336,2.326-2.258h0Zm4.347-1.262-1.339,1.3h0l-.078-.076-.082-.07-.083-.064-.086-.062-.088-.055-.09-.053-.092-.047-.095-.043-.1-.035-.1-.033-.1-.029-.1-.023-.1-.018-.1-.014-.1-.008-.1,0-.1,0-.1,0-.1.014-.1.014-.1.02-.1.027-.1.029-.1.035-.1.041-.094.045-.091.049-.09.053-.088.059-.085.064-.083.068-.08.074-1.306-1.332.15-.139.156-.131.161-.121.166-.111.17-.1.174-.094.177-.082.181-.074.183-.068.185-.057.188-.047.188-.039.19-.029.191-.02.191-.01.192,0,.191.006.19.016.191.025.189.035.188.041.185.053.184.063.181.068.179.08.174.088.172.1.167.107.163.119.158.123.152.131.146.145Z" transform="translate(-5471 -27036)"/>
      </g>
      <g id="Сгруппировать_310" data-name="Сгруппировать 310" transform="translate(308.551 2580.415)">
        <path id="Контур_2816" data-name="Контур 2816" d="M12145.126,33843.98h0a3.045,3.045,0,0,1-.055,4.309l-2.326,2.266a3.077,3.077,0,0,1-4.33-.059h0a3.049,3.049,0,0,1,.056-4.312l2.324-2.258A3.078,3.078,0,0,1,12145.126,33843.98Z" transform="translate(-12136.614 -33842.133)" fill="#fff" fill-rule="evenodd"/>
        <path id="_1-2" data-name="1" d="M10949.512,32648.846h0l.671-.65Zm.6,4.982-1.307-1.334h0l.076-.08.071-.08.067-.082.061-.088.057-.086.053-.09.047-.094.041-.094.038-.094.032-.1.029-.1.022-.1.019-.1.013-.1.009-.1,0-.1,0-.105-.006-.1-.01-.1-.016-.1-.021-.1-.025-.1-.03-.1-.034-.1-.04-.1-.045-.094-.049-.088-.056-.09-.059-.088-.064-.086-.069-.082-.074-.078,1.34-1.3.139.15.13.156.122.158.11.164.1.17.094.174.084.178.077.178.065.184.058.186.047.184.038.191.029.188.021.189.01.189,0,.191-.007.193-.018.189-.024.189-.035.188-.043.188-.052.184-.062.184-.07.18-.081.178-.089.174-.1.172-.107.166-.117.164-.125.154-.133.152-.143.148Zm-3.632.926,2.325-2.26,1.307,1.334-2.326,2.258h0Zm-4.348,1.262,1.339-1.3h0l.079.074.08.072.084.064.086.063.088.057.092.051.092.049.094.041.1.037.1.031.1.027.1.023.1.018.1.014.1.01.1,0,.1,0,.1,0,.1-.012.1-.016.1-.021.1-.025.1-.031.1-.031.1-.041.094-.045.092-.049.089-.053.088-.061.086-.064.082-.07.081-.07,1.306,1.332-.149.137-.156.131-.162.121-.166.109-.169.105-.174.094-.178.082-.18.076-.184.064-.186.059-.187.047-.188.037-.189.031-.191.02-.191.012h-.192l-.19-.006-.191-.014-.189-.025-.188-.035-.187-.045-.187-.051-.184-.062-.182-.068-.179-.08-.175-.088-.172-.1-.166-.105-.163-.115-.158-.127-.153-.133-.146-.141Zm.669-.652h0l-.669.652Zm-.6-4.979,1.306,1.334h0l-.076.076-.071.082-.066.082-.062.086-.057.088-.052.09-.047.094-.042.094-.038.094-.033.1-.027.1-.022.1-.02.1-.013.1-.009.1,0,.1v.1l.006.1.012.1.016.1.021.1.023.1.031.1.035.1.04.1.044.094.05.09.055.09.06.086.063.086.068.084.075.08-1.339,1.3-.139-.15-.131-.156-.121-.158-.112-.166-.1-.168-.094-.174-.085-.178-.075-.178-.065-.184-.058-.184-.048-.187-.038-.189-.03-.187-.02-.189-.012-.189,0-.191.007-.189.017-.193.025-.189.034-.187.043-.187.052-.186.062-.182.071-.18.08-.18.089-.174.1-.17.106-.166.116-.164.125-.156.135-.152.143-.145Zm3.632-.926-2.326,2.26-1.306-1.334,2.326-2.258h0Zm4.348-1.264-1.34,1.3h0l-.079-.076-.08-.072-.084-.064-.086-.062-.088-.057-.091-.053-.092-.047-.1-.041-.1-.037-.1-.031-.1-.029-.1-.023-.1-.018-.1-.014-.1-.01-.1,0-.1,0-.1,0-.1.012-.1.016-.1.02-.1.027-.1.029-.1.033-.1.043-.094.041-.092.051-.091.055-.088.059-.084.064-.083.068-.08.074-1.306-1.332.149-.139.156-.133.161-.119.165-.111.171-.1.173-.094.178-.084.181-.074.182-.064.186-.059.188-.049.189-.037.189-.029.191-.021.19-.01.192,0,.191.006.19.016.189.027.189.033.188.043.186.053.185.063.181.068.179.078.175.09.171.1.168.107.163.115.158.127.151.131.147.143Z" transform="translate(-10941 -32646.998)"/>
      </g>
      <g id="Сгруппировать_311" data-name="Сгруппировать 311" transform="translate(312.827 2584.783)">
        <path id="Контур_2817" data-name="Контур 2817" d="M17615.639,39454.977h0a3.05,3.05,0,0,1-.055,4.313l-2.328,2.262a3.082,3.082,0,0,1-4.328-.055h0a3.053,3.053,0,0,1,.055-4.316l2.324-2.262A3.087,3.087,0,0,1,17615.639,39454.977Z" transform="translate(-17607.125 -39453.129)" fill="#fff" fill-rule="evenodd"/>
        <path id="_1-3" data-name="1" d="M16420.514,38259.844h0l.67-.648Zm.6,4.988-1.307-1.34h0l.074-.078.074-.078.064-.086.063-.082.057-.086.053-.09.047-.094.041-.094.039-.094.031-.1.029-.1.021-.1.02-.1.012-.1.012-.1v-.207l-.006-.105-.01-.1-.016-.105-.021-.1-.025-.1-.031-.1-.033-.1-.041-.1-.043-.09-.051-.09-.055-.094-.059-.086-.064-.086-.068-.078-.076-.082,1.342-1.3.137.152.131.152.123.164.109.16.1.172.094.176.086.176.078.18.064.184.057.18.047.188.041.188.027.2.021.184.012.2,0,.188-.01.191-.012.188-.027.191-.033.188-.045.188-.051.188-.062.18-.07.184-.08.176-.092.172-.1.176-.107.164-.115.16-.125.156-.135.156-.143.148Zm-3.631.922,2.324-2.262,1.307,1.34-2.326,2.258h0Zm-4.348,1.262,1.34-1.3h0l.076.078.08.074.086.059.086.063.088.055.092.055.09.047.1.043.094.035.1.035.1.027.1.023.1.02.1.012.1.008.1,0h.1l.1-.008.1-.008.1-.016.1-.02.1-.027.1-.027.1-.035.094-.043.094-.047.094-.051.088-.051.088-.059.086-.062.082-.07.082-.074,1.3,1.336-.148.137-.156.129-.164.121-.164.113-.17.1-.174.094-.18.086-.178.074-.184.066-.186.059-.187.047-.187.039-.189.031-.191.02-.189.012h-.2l-.189,0-.191-.02-.189-.023-.191-.035-.187-.043-.184-.055-.184-.062-.18-.07-.182-.078-.174-.086-.172-.1-.166-.105-.162-.113-.16-.129-.152-.133-.145-.141Zm.668-.645h0l-.668.645Zm-.6-4.984,1.309,1.332h0l-.078.082-.072.078-.066.086-.062.086-.057.082-.051.094-.047.09-.043.094-.037.094-.033.1-.027.1-.023.1-.02.1-.012.1-.008.105,0,.1v.1l.008.1.01.1.016.105.02.1.027.1.029.1.035.094.039.1.047.09.047.09.055.09.061.09.063.086.068.082.078.078-1.34,1.3-.141-.148-.129-.152-.121-.16-.113-.168-.1-.172-.094-.172-.086-.172-.074-.184-.066-.184-.059-.184-.047-.187-.037-.184-.029-.191-.021-.191-.01-.191,0-.191.008-.187.016-.191.025-.187.033-.187.045-.184.053-.187.059-.187.072-.18.08-.176.09-.176.1-.168.107-.168.115-.164.125-.156.135-.156.143-.141Zm3.633-.922-2.324,2.254-1.309-1.332,2.326-2.262h0Zm4.348-1.27-1.342,1.3h0l-.078-.078-.08-.07-.082-.066-.088-.062-.088-.055-.09-.051-.094-.051-.094-.039-.1-.035-.1-.035-.1-.027-.1-.023-.1-.02-.1-.016-.1,0-.1,0h-.105l-.1,0-.1.012-.1.016-.1.02-.1.027-.1.027-.1.035-.1.043-.094.043-.09.051-.092.051-.088.063-.084.063-.084.07-.078.078-1.307-1.34.15-.137.156-.129.16-.117.164-.113.172-.1.172-.1.18-.086.18-.074.184-.062.184-.059.188-.047.189-.043.189-.027.189-.02.193-.016h.191l.191.008.191.02.188.023.191.035.188.039.184.059.186.059.182.07.178.078.174.09.172.1.168.109.164.113.156.125.152.137.148.137Z" transform="translate(-16412 -38257.996)"/>
      </g>
      <g id="Сгруппировать_312" data-name="Сгруппировать 312" transform="translate(312.205 2555)">
        <path id="Контур_2818" data-name="Контур 2818" d="M16822.793,1201.8l-6.617,6.628a3.2,3.2,0,0,1-4.5.088h0a3.17,3.17,0,0,1-.086-4.483c1.689-1.752,3.391-3.492,5.086-5.24,4.309-4.437,12.094-3.963,16.477.4h0a12.176,12.176,0,0,1,1.781,14.693" transform="translate(-16809.77 -1194.755)" fill="none" fill-rule="evenodd"/>
        <path id="_1-4" data-name="1" d="M15628.361,6.389a.939.939,0,0,1,1.323,0,.928.928,0,0,1,0,1.317Zm-6.616,6.628,6.616-6.628,1.326,1.313-6.616,6.629-1.338-1.3Zm1.326,1.314a.939.939,0,0,1-1.323,0,.929.929,0,0,1,0-1.317Zm-5.812.1,1.3-1.342h0l.086.077.088.072.091.067.093.062.095.057.1.051.1.046.1.041.1.037.1.031.105.026.106.021.107.016.107.01.109.006h.108l.108,0,.107-.01.109-.015.106-.019.105-.026.1-.03.1-.035.1-.04.1-.045.1-.051.095-.055.094-.06.091-.065.087-.07.085-.076.082-.081,1.349,1.291-.15.148-.156.139-.16.13-.168.12-.171.111-.177.1-.18.093-.184.083-.186.074-.188.064-.192.055-.192.046-.194.037-.2.027-.2.018-.2.009-.2,0-.2-.01-.2-.019-.2-.029-.194-.038-.192-.047-.191-.057-.189-.067-.187-.076-.183-.086-.179-.095-.177-.1-.171-.114-.167-.123-.161-.133-.156-.142Zm.648-.671h0l-.648.671Zm-.762-5.129,1.348,1.292h0l-.077.085-.073.087-.066.09-.062.093-.058.095-.052.1-.045.1-.042.1-.036.1-.031.1-.026.105-.021.107-.018.107-.01.108-.006.108v.108l0,.107.011.108.015.107.02.106.025.105.03.1.036.1.04.1.045.1.051.1.055.095.062.092.064.09.07.088.077.084.08.083-1.3,1.342-.147-.149-.14-.156-.13-.161-.121-.166-.112-.171-.1-.175-.093-.179-.083-.182-.074-.185-.064-.188-.056-.19-.045-.192-.038-.194-.026-.2-.019-.2-.008-.2v-.2l.01-.2.02-.2.029-.2.038-.194.049-.192.056-.19.067-.188.076-.185.086-.183.095-.179.1-.175.115-.17.123-.166.134-.161.143-.155Zm5.089-5.242,1.345,1.295h0l-.159.164-.159.163-.16.164-.158.163-.159.163-.16.164-.158.163-.159.163-.159.163-.16.163-.158.163-.159.164-.159.163-.159.163-.159.163-.158.163-.16.163-.158.163-.159.163-.159.163-.158.163-.159.164-.159.163-.159.163-.158.163-.159.164-.158.163-.158.163-.158.164-.158.163-.159.164-.158.164-1.348-1.292.158-.164.158-.164.16-.164.158-.164.159-.164.16-.164.157-.164.16-.164.159-.163.158-.164.159-.163.159-.164.159-.163.159-.163.159-.164.159-.163.16-.163.157-.163.16-.164.159-.163.158-.163.16-.163.158-.163.159-.163.16-.163.157-.163.16-.163.16-.164.158-.163.159-.163.158-.163.159-.163Zm17.786.368-1.279,1.359-.021-.021-.386-.364-.4-.344-.42-.323-.435-.3-.449-.28-.464-.259-.475-.238-.485-.215-.5-.193-.5-.17-.511-.148-.517-.125-.52-.1-.524-.078-.525-.055-.526-.03-.525-.007-.523.017-.521.04-.516.065-.51.09-.5.114-.493.138-.487.163-.475.187-.464.212-.451.237-.438.262-.423.286-.408.312-.391.337-.374.363-1.345-1.295.453-.441.475-.409.494-.378.513-.346.527-.315.542-.284.556-.254.567-.224.576-.193.586-.164.595-.134.6-.106.6-.076.607-.048.609-.019.612.008.61.036.609.064.606.09.6.118.6.145.591.17.582.2.575.224.564.251.553.276.54.3.525.329.511.354.493.38.476.406.455.431Zm-1.279,1.359h0l1.279-1.359h0l.021.021Zm3.214,14.509-1.584-.992.23-.386.213-.4.193-.406.175-.414.156-.423.139-.43.119-.437.1-.442.081-.447.064-.452.045-.455.028-.457.008-.459-.01-.46-.027-.46-.047-.459-.063-.457-.083-.455-.1-.451-.118-.448-.136-.442-.153-.436-.171-.43-.187-.423-.205-.414-.222-.4-.24-.395-.255-.385-.271-.373-.289-.361-.306-.349-.321-.335,1.321-1.318.38.4.361.412.341.426.32.439.3.452.279.462.26.473.24.483.219.492.2.5.178.507.157.513.137.518.115.522.095.527.075.529.054.532.032.533.011.533-.01.533-.031.532-.054.53-.073.527-.1.523-.118.519-.141.514-.163.507-.185.5-.207.492-.231.483-.254.473Zm0,0a.939.939,0,0,1-1.29.293.929.929,0,0,1-.294-1.285Z" transform="translate(-15616)"/>
      </g>
      <g id="Сгруппировать_313" data-name="Сгруппировать 313" transform="translate(300 2571.679)">
        <path id="_1-5" data-name="1" d="M8.512,21426.85h0l.67-.652Zm.6,4.979-1.305-1.334h0l.076-.078.072-.078.066-.084.062-.088.056-.088.052-.09.047-.09.042-.094.038-.1.033-.1.027-.1.023-.1.018-.1.014-.1.009-.1,0-.1v-.1l-.006-.1-.011-.1-.016-.1-.02-.1-.026-.1-.03-.1-.035-.1-.04-.1-.045-.092-.05-.092-.054-.09-.059-.086-.064-.086-.069-.08-.075-.082,1.34-1.3.139.152.13.154.121.16.113.166.1.166.093.174.085.176.075.18.066.184.057.184.048.186.039.189.029.191.02.188.012.191,0,.191-.007.189-.016.191-.025.188-.034.189-.043.186-.053.188-.061.184-.071.18-.08.176-.089.174-.1.172-.107.168-.116.16-.125.158-.134.15-.143.146Zm-3.631.926,2.326-2.26,1.305,1.334-2.326,2.26Zm-4.348,1.262,1.34-1.3h0l.078.076.081.074.084.064.086.061.088.055.09.051.093.049.095.041.1.039.1.033.1.025.1.023.1.018.1.014.1.012.1,0,.1,0,.1-.006.1-.012.1-.016.1-.021.1-.023.1-.031.1-.035.1-.041.094-.043.091-.051.09-.051.088-.059.085-.066.083-.068.081-.074,1.305,1.334-.15.141-.156.125-.161.123-.166.111-.17.1-.174.094-.177.082-.18.076-.183.066-.185.057-.188.047-.188.037-.19.031-.191.02-.191.012H3.943l-.191-.006-.191-.014-.191-.025-.188-.033-.188-.047-.185-.051-.184-.061-.181-.072-.179-.08-.174-.086-.172-.1-.167-.105-.163-.117-.158-.123-.152-.135-.147-.143Zm.67-.648h0l-.67.648Zm-.6-4.982,1.306,1.336h0l-.077.076-.071.082-.066.084-.062.082-.056.09-.052.092-.047.094-.042.092-.038.1-.033.1-.028.1-.023.1-.018.1-.013.1-.009.1,0,.1v.1l.006.105.011.1.016.1.02.1.026.1.03.1.035.1.04.1.045.092.049.092.054.09.059.088.064.086.07.08.074.08-1.34,1.3-.138-.146-.131-.156-.121-.162-.113-.164-.1-.17-.094-.174-.084-.174-.076-.182-.066-.182-.057-.184-.048-.187-.038-.187-.03-.189-.02-.189-.011-.191,0-.189.007-.191.016-.189.026-.189.034-.189.044-.186.052-.186.062-.184.07-.18.08-.18.089-.174.1-.172.107-.164.116-.164.126-.158.134-.15.143-.146Zm3.632-.924-2.326,2.26-1.306-1.336,2.326-2.258Zm4.347-1.264-1.34,1.3h0l-.078-.076-.081-.07-.084-.064-.086-.062-.088-.057-.091-.051-.093-.047-.094-.045-.1-.035-.1-.033-.1-.027-.1-.023-.1-.018-.1-.014-.1-.006-.1,0h-.1l-.1.006-.1.012-.1.012-.1.021-.1.025-.1.031-.1.035-.1.039-.094.045-.091.049-.09.057-.088.057-.085.064-.083.066-.08.076-1.306-1.334.15-.137.156-.133.161-.121.166-.111.17-.1.174-.094.177-.086.181-.074.183-.066.185-.057.187-.047.188-.039.19-.027.191-.021.191-.01.191,0,.191.008.191.018.19.023.189.035.188.041.186.051.184.063.181.068.178.082.175.09.171.1.167.107.163.117.158.125.152.131.147.143Z" transform="translate(0 -21425)"/>
      </g>
      <path id="Контур_2820" data-name="Контур 2820" d="M9168.127,29428.8a2.556,2.556,0,0,1-2.813-.545h0a2.447,2.447,0,0,1-.707-1.961l1.808-1.754a3.093,3.093,0,0,1,.3-.275,2.134,2.134,0,0,1,2.835.188l0,0,.008.006,0,0,0,0h0l.031.029a2.122,2.122,0,0,1-.076,2.959Z" transform="translate(-8857.434 -26845.906)" fill="#12b7ba" fill-rule="evenodd"/>
      <path id="Контур_2821" data-name="Контур 2821" d="M14638.158,35039.742a2.562,2.562,0,0,1-2.813-.543h0a2.46,2.46,0,0,1-.708-1.961l1.809-1.758a3.857,3.857,0,0,1,.3-.277,2.147,2.147,0,0,1,2.836.191h0l.009.008h0l.031.031a2.125,2.125,0,0,1-.076,2.961Z" transform="translate(-14323.189 -32452.484)" fill="#12b7ba" fill-rule="evenodd"/>
      <path id="Контур_2822" data-name="Контур 2822" d="M20109.129,40650.742a2.568,2.568,0,0,1-2.812-.547h0a2.442,2.442,0,0,1-.709-1.965l1.809-1.75a3.1,3.1,0,0,1,.3-.277,2.153,2.153,0,0,1,2.836.188h0l.006.012,0,0h0l.031.027a2.122,2.122,0,0,1-.076,2.957Z" transform="translate(-19789.885 -38059.117)" fill="#12b7ba" fill-rule="evenodd"/>
    </g>
  </g>
</svg>
