<svg xmlns="http://www.w3.org/2000/svg" xmlns:xlink="http://www.w3.org/1999/xlink" width="100" height="100" viewBox="0 0 100 100"><defs><style>.a{clip-rule:evenodd;}.b,.g{fill:none;}.c{fill:#12b7ba;}.d{fill:#fff;}.d,.g,.i{fill-rule:evenodd;}.e{clip-path:url(#a);}.f,.i{fill:#fcc123;}.h{clip-path:url(#b);}</style><clipPath id="a"><path class="a" d="M4830.1,2800h41.934a2.1,2.1,0,0,1,2.095,2.1v26.254a2.1,2.1,0,0,1-2.095,2.1H4830.1a2.1,2.1,0,0,1-2.1-2.1V2802.1A2.1,2.1,0,0,1,4830.1,2800Z" transform="translate(-4828 -2800)"/></clipPath><clipPath id="b"><path class="a" d="M6309.1,4823h41.926a2.109,2.109,0,0,1,2.1,2.1v26.254a2.109,2.109,0,0,1-2.1,2.1H6309.1a2.109,2.109,0,0,1-2.1-2.1V4825.1A2.109,2.109,0,0,1,6309.1,4823Z" transform="translate(-6307 -4823)"/></clipPath></defs><rect class="b" width="100" height="100"/><g transform="translate(3 4)"><circle class="c" cx="30" cy="30" r="30"/><g transform="translate(12 19)"><path class="d" d="M4830.1,2800h41.934a2.1,2.1,0,0,1,2.095,2.1v26.254a2.1,2.1,0,0,1-2.095,2.1H4830.1a2.1,2.1,0,0,1-2.1-2.1V2802.1A2.1,2.1,0,0,1,4830.1,2800Z" transform="translate(-4804.261 -2798.593)"/><g class="e" transform="translate(23.74 1.407)"><g transform="translate(0 6.382)"><rect class="f" width="46.132" height="5.954"/></g></g><path class="g" d="M4830.1,2800h41.934a2.1,2.1,0,0,1,2.095,2.1v26.254a2.1,2.1,0,0,1-2.095,2.1H4830.1a2.1,2.1,0,0,1-2.1-2.1V2802.1A2.1,2.1,0,0,1,4830.1,2800Z" transform="translate(-4804.261 -2798.593)"/><path d="M4638.5,2606h41.926a3.472,3.472,0,0,1,2.472,1.037l.008-.008a3.531,3.531,0,0,1,1.03,2.48v26.254a3.509,3.509,0,0,1-1.03,2.466l-.008.007a3.49,3.49,0,0,1-2.472,1.03H4638.5a3.52,3.52,0,0,1-2.472-1.03l-.008-.007a3.5,3.5,0,0,1-1.022-2.466V2609.51a3.521,3.521,0,0,1,1.022-2.48l.1-.087A3.5,3.5,0,0,1,4638.5,2606Zm41.926,2.807H4638.5a.679.679,0,0,0-.45.16l-.043.043a.7.7,0,0,0-.21.5v26.254a.707.707,0,0,0,.2.493h.007a.667.667,0,0,0,.493.2h41.926a.7.7,0,0,0,.5-.2h0a.707.707,0,0,0,.2-.493V2609.51a.726.726,0,0,0-.2-.5h0A.726.726,0,0,0,4680.428,2608.806Z" transform="translate(-4612.66 -2606)"/><path class="d" d="M6309.1,4823h41.926a2.109,2.109,0,0,1,2.1,2.1v26.254a2.109,2.109,0,0,1-2.1,2.1H6309.1a2.109,2.109,0,0,1-2.1-2.1V4825.1A2.109,2.109,0,0,1,6309.1,4823Z" transform="translate(-6272.538 -4806.92)"/><g class="h" transform="translate(34.462 16.079)"><g transform="translate(3.871 3.162)"><path class="i" d="M6843.1,5259h41.934a2.1,2.1,0,0,1,2.1,2.1v26.254a2.109,2.109,0,0,1-2.1,2.1H6843.1a2.108,2.108,0,0,1-2.1-2.1V5261.1A2.1,2.1,0,0,1,6843.1,5259Z" transform="translate(-6841 -5259)"/></g></g><path class="g" d="M6309.1,4823h41.926a2.109,2.109,0,0,1,2.1,2.1v26.254a2.109,2.109,0,0,1-2.1,2.1H6309.1a2.109,2.109,0,0,1-2.1-2.1V4825.1A2.109,2.109,0,0,1,6309.1,4823Z" transform="translate(-6272.538 -4806.92)"/><path d="M6117.5,4630h41.927a3.466,3.466,0,0,1,2.471,1.029h.008a3.5,3.5,0,0,1,1.03,2.474v26.254a3.526,3.526,0,0,1-1.03,2.474l-.014.007a3.485,3.485,0,0,1-2.465,1.023H6117.5a3.48,3.48,0,0,1-2.473-1.03l-.007-.007a3.5,3.5,0,0,1-1.022-2.466V4633.5a3.5,3.5,0,0,1,1.022-2.474l.1-.087A3.462,3.462,0,0,1,6117.5,4630Zm41.927,2.8H6117.5a.683.683,0,0,0-.449.167l-.044.043a.685.685,0,0,0-.21.493v26.254a.7.7,0,0,0,.2.494l.007.007a.7.7,0,0,0,.494.2h41.927a.7.7,0,0,0,.493-.2l.007-.007a.7.7,0,0,0,.2-.494V4633.5a.685.685,0,0,0-.21-.493V4633A.7.7,0,0,0,6159.429,4632.8Z" transform="translate(-6080.938 -4615.32)"/><ellipse cx="3.719" cy="3.721" rx="3.719" ry="3.721" transform="translate(67.957 22.439)"/><ellipse cx="3.719" cy="3.721" rx="3.719" ry="3.721" transform="translate(63.179 22.439)"/><path class="d" d="M1746,7220l53.664,11.575v14.048l-18.067,11.169-35.6-22.744Z" transform="translate(-1744.605 -7186.536)"/><path class="i" d="M1799.664,5844.707,1764.893,5823,1746,5833.131l35.032,23.093Z" transform="translate(-1744.605 -5799.668)"/><path d="M1605.972,5652.722l-32.175-20.1-16.117,8.652,32.328,21.308Zm-31.385-22.9,34.771,21.714a1.347,1.347,0,0,1,.449.449,1.4,1.4,0,0,1-.449,1.922l-18.64,11.517a1.4,1.4,0,0,1-1.5-.021l-34.945-23.042a1.371,1.371,0,0,1-.544-.551,1.389,1.389,0,0,1,.566-1.893l18.864-10.125A1.385,1.385,0,0,1,1574.587,5629.826Z" transform="translate(-1553.559 -5607.684)"/><path d="M1554.625,7954.554a1.392,1.392,0,1,1,1.53-2.327l34.285,22.6,17.879-11.053a1.4,1.4,0,0,1,1.472,2.378l-18.64,11.518a1.4,1.4,0,0,1-1.5-.021Z" transform="translate(-1553.991 -7913.222)"/><path d="M1554.625,8967.555a1.393,1.393,0,0,1,1.53-2.328l34.285,22.6,17.879-11.053a1.4,1.4,0,0,1,1.472,2.378l-18.64,11.518a1.4,1.4,0,0,1-1.5-.021Z" transform="translate(-1553.991 -8918.875)"/><path class="d" d="M3425,6617.185v-17.573L3446.112,6587l11.455,6.324-21.851,13.359-.225,18.225Z" transform="translate(-3411.432 -6558.128)"/><path d="M3232,6425.7v-17.573a1.408,1.408,0,0,1,.776-1.255l21.018-12.554a1.375,1.375,0,0,1,1.385-.029l11.462,6.324a1.4,1.4,0,0,1,.551,1.9,1.473,1.473,0,0,1-.543.551l-21.148,12.923-.21,17.45a1.394,1.394,0,0,1-1.414,1.378,1.377,1.377,0,0,1-.812-.269l-10.491-7.716A1.391,1.391,0,0,1,3232,6425.7Zm2.8-16.783v16.079l7.729,5.686.2-15.426a1.4,1.4,0,0,1,.667-1.254l19.792-12.1-8.649-4.779Z" transform="translate(-3219.832 -6366.64)"/></g></g></svg>