<svg xmlns="http://www.w3.org/2000/svg" width="138" height="40" viewBox="0 0 138 40"><defs><style>.a{fill:#fefefe;fill-rule:evenodd;}</style></defs><g transform="translate(-240 -40)"><path class="a" d="M366.114,40,378,59.85V60L366.114,79.85V80H240v-.15L247.409,60,240,40.15V40H366.114Z" transform="translate(0)"/><path d="M355.154,71.579l.464-3.308h3.858l-.462,3.308ZM349.906,59.7l-6.638,11.88h-3.4l2.934-21.053h3.858l-1.7,11.88,6.636-11.88H355l-2.778,21.053h-4.013Zm-23.463,8.571,2.623-15.489a2.987,2.987,0,0,1,3.242-2.256h7.718l-2.933,21.053h-3.858l2.314-17.594h-2.933l-2.623,15.489c-.309,1.2-1.39,2.105-3.242,2.105h-2.47V68.271Zm-7.409-3.609-.155-10.827L316.1,64.662ZM300.973,60.6l-2.314-10.075h4.013l1.543,7.218,3.242-7.218h4.322L306.222,61.5l2.623,10.226h-4.013l-1.544-7.218-3.549,7.218H295.57Zm-12.194,7.669h6.02l-.462,3.459h-9.879l2.778-21.2h9.725l-.462,3.459h-5.712l-.771,5.263h4.013l-.464,3.308H289.55Zm-14.047,0h3.549l1.853-14.286h-3.551Zm-3.705-22.406-3.4,25.865h-4.013L266.7,49.173H263l-3.087,22.556h-3.86L259.6,45.865Zm-27.94-3.759L249.725,60l-6.638,17.895H364.879L375.53,60,364.724,42.105ZM365.959,40h.155L378,59.85V60L366.114,79.85V80H240v-.15L247.409,60,240,40.15V40H365.959Zm-95.4,29.474,2.316-16.692a2.987,2.987,0,0,1,2.932-2.256h6.174a2.16,2.16,0,0,1,2.316,2.256l-2.316,16.692a2.841,2.841,0,0,1-2.932,2.256H272.88A2.16,2.16,0,0,1,270.564,69.474Zm48.47,2.256V67.97h-3.86l-1.081,3.759h-4.013l6.174-21.2h6.329l.464,21.053Zm37.046-5.865,2.47-20.15h3.858l-3.087,20.15Z" transform="translate(0)"/></g></svg>