<svg xmlns="http://www.w3.org/2000/svg" xmlns:xlink="http://www.w3.org/1999/xlink" width="100" height="100" viewBox="0 0 100 100"><defs><style>.a{clip-rule:evenodd;}.b,.h{fill:none;}.c{fill:#12b7ba;}.d,.e{fill:#fff;}.d,.g,.h{fill-rule:evenodd;}.f{clip-path:url(#a);}.g{fill:#fcc123;}.i{clip-path:url(#b);}</style><clipPath id="a"><path class="a" d="M4271.533,10125.138a15.231,15.231,0,0,1,2.02,7.592h0a15.529,15.529,0,0,1-15.523,15.442h-26.686a15.529,15.529,0,0,1-15.523-15.442h0a15.258,15.258,0,0,1,2.362-8.161l-.516-.271a3.578,3.578,0,0,1-1.46-4.986h0a3.961,3.961,0,0,1,5.2-1.51l1.828.954c-.036-.435-.057-.872-.057-1.312h0a15.529,15.529,0,0,1,15.525-15.442H4252.2a15.529,15.529,0,0,1,15.525,15.442h0q0,.634-.052,1.258l1.728-.9a3.962,3.962,0,0,1,5.2,1.51h0a3.58,3.58,0,0,1-1.461,4.986Z" transform="translate(-4215.72 -10102.001)"/></clipPath><clipPath id="b"><path class="a" d="M9329.044,11982.737a15.839,15.839,0,0,1-4.947.43h-27.19a9.914,9.914,0,0,1-3.906-.7c.089-6.524,2.008-10.55,6.755-12.709,2.757-1.255,5.986-1.127,11.765-1.154,3.544-.012,6.337-.167,8.919.531C9326.057,11970.653,9329.474,11974.409,9329.044,11982.737Z" transform="translate(-9293 -11968.581)"/></clipPath></defs><rect class="b" width="100" height="100"/><g transform="translate(5 4)"><circle class="c" cx="30" cy="30" r="30"/><g transform="translate(10 25)"><path class="d" d="M4560.032,23359h0a5.083,5.083,0,0,1,5.036,5.1v11.6a5.083,5.083,0,0,1-5.036,5.1h0a5.081,5.081,0,0,1-5.032-5.1v-11.6A5.08,5.08,0,0,1,4560.032,23359Z" transform="translate(-4552.99 -23321.047)"/><path d="M4018.271,22817a6.221,6.221,0,0,1,4.432,1.861,6.394,6.394,0,0,1,1.839,4.49v11.6a6.378,6.378,0,0,1-1.839,4.486,6.2,6.2,0,0,1-8.862,0,6.381,6.381,0,0,1-1.842-4.486v-11.6a6.4,6.4,0,0,1,1.842-4.49A6.22,6.22,0,0,1,4018.271,22817Zm2.679,3.639a3.739,3.739,0,0,0-5.359,0,3.85,3.85,0,0,0-1.114,2.713v11.6a3.852,3.852,0,0,0,1.114,2.711,3.739,3.739,0,0,0,5.359,0,3.846,3.846,0,0,0,1.116-2.711v-11.6A3.843,3.843,0,0,0,4020.951,22820.641Z" transform="translate(-4011.23 -22780.301)"/><path class="d" d="M25028.031,23349h0a5.085,5.085,0,0,1,5.037,5.1v11.6a5.08,5.08,0,0,1-5.037,5.094h0a5.079,5.079,0,0,1-5.031-5.094v-11.6A5.084,5.084,0,0,1,25028.031,23349Z" transform="translate(-24974.279 -23311.07)"/><path d="M24486.273,22807a6.205,6.205,0,0,1,4.428,1.863,6.375,6.375,0,0,1,1.842,4.49v11.6a6.381,6.381,0,0,1-1.842,4.488,6.193,6.193,0,0,1-8.859,0,6.388,6.388,0,0,1-1.84-4.488v-11.6a6.382,6.382,0,0,1,1.84-4.49A6.228,6.228,0,0,1,24486.273,22807Zm2.68,3.639a3.74,3.74,0,0,0-5.359,0,3.856,3.856,0,0,0-1.113,2.715v11.6a3.87,3.87,0,0,0,1.113,2.715,3.749,3.749,0,0,0,5.359,0,3.871,3.871,0,0,0,1.115-2.715v-11.6A3.857,3.857,0,0,0,24488.953,22810.641Z" transform="translate(-24432.52 -22770.324)"/><rect class="e" width="15.09" height="10.466" rx="5.233" transform="translate(22.558 1.255)"/><path d="M13028.39,6942h4.76a6.327,6.327,0,0,1,4.51,1.905,6.522,6.522,0,0,1,0,9.165,6.319,6.319,0,0,1-4.51,1.905h-4.76a6.317,6.317,0,0,1-4.509-1.905,6.522,6.522,0,0,1,0-9.165A6.325,6.325,0,0,1,13028.39,6942Zm4.76,2.511h-4.76a3.9,3.9,0,0,0-2.784,1.167,3.993,3.993,0,0,0,0,5.619,3.905,3.905,0,0,0,2.784,1.169h4.76a3.907,3.907,0,0,0,2.787-1.169,4,4,0,0,0,0-5.619A3.905,3.905,0,0,0,13033.149,6944.511Z" transform="translate(-13000.668 -6942)"/><path class="d" d="M4271.533,10125.138a15.231,15.231,0,0,1,2.02,7.592h0a15.529,15.529,0,0,1-15.523,15.442h-26.686a15.529,15.529,0,0,1-15.523-15.442h0a15.258,15.258,0,0,1,2.362-8.161l-.516-.271a3.578,3.578,0,0,1-1.46-4.986h0a3.961,3.961,0,0,1,5.2-1.51l1.828.954c-.036-.435-.057-.872-.057-1.312h0a15.529,15.529,0,0,1,15.525-15.442H4252.2a15.529,15.529,0,0,1,15.525,15.442h0q0,.634-.052,1.258l1.728-.9a3.962,3.962,0,0,1,5.2,1.51h0a3.58,3.58,0,0,1-1.461,4.986Z" transform="translate(-4214.485 -10094.695)"/><g class="f" transform="translate(1.235 7.305)"><g transform="translate(4.604 3.835)"><path class="g" d="M6288.845,11784.137a15.255,15.255,0,0,1,2.02,7.595h0a15.528,15.528,0,0,1-15.523,15.441h-26.686a15.528,15.528,0,0,1-15.523-15.441h0a15.265,15.265,0,0,1,2.362-8.164l-.516-.269a3.577,3.577,0,0,1-1.458-4.987h0a3.959,3.959,0,0,1,5.2-1.509l1.828.952c-.037-.432-.058-.869-.058-1.311h0a15.531,15.531,0,0,1,15.526-15.444h13.489a15.53,15.53,0,0,1,15.523,15.444h0c0,.422-.019.844-.053,1.258l1.728-.9a3.958,3.958,0,0,1,5.2,1.509h0a3.58,3.58,0,0,1-1.458,4.987Z" transform="translate(-6233.033 -11761)"/></g></g><path class="h" d="M4271.533,10125.138a15.231,15.231,0,0,1,2.02,7.592h0a15.529,15.529,0,0,1-15.523,15.442h-26.686a15.529,15.529,0,0,1-15.523-15.442h0a15.258,15.258,0,0,1,2.362-8.161l-.516-.271a3.578,3.578,0,0,1-1.46-4.986h0a3.961,3.961,0,0,1,5.2-1.51l1.828.954c-.036-.435-.057-.872-.057-1.312h0a15.529,15.529,0,0,1,15.525-15.442H4252.2a15.529,15.529,0,0,1,15.525,15.442h0q0,.634-.052,1.258l1.728-.9a3.962,3.962,0,0,1,5.2,1.51h0a3.58,3.58,0,0,1-1.461,4.986Z" transform="translate(-4214.485 -10094.695)"/><path d="M3733.123,9583.927a16.726,16.726,0,0,1-15.178,23.757h-26.686a16.785,16.785,0,0,1-16.762-16.7,16.589,16.589,0,0,1,1.9-7.7,4.836,4.836,0,0,1-1.47-6.121c.055-.1.1-.185.123-.231l0,0a5.183,5.183,0,0,1,6.824-1.993A16.787,16.787,0,0,1,3698.624,9559h13.488a16.791,16.791,0,0,1,16.744,15.891,5.186,5.186,0,0,1,6.7,2c.02.035.039.067.057.1s.054.1.091.177a4.838,4.838,0,0,1-1.851,6.372c-.05.028-.128.07-.235.126Zm-1.362,3.455a14.08,14.08,0,0,0-1.384-3.363c-.009-.015-.018-.034-.027-.053a1.258,1.258,0,0,1,.532-1.686l1.606-.839c.014-.007.053-.027.119-.067a2.315,2.315,0,0,0,.9-3.062c-.007-.011-.025-.045-.062-.107l0,0a2.652,2.652,0,0,0-1.57-1.212,2.7,2.7,0,0,0-2,.181l-1.659.864a1.2,1.2,0,0,1-.735.174,1.249,1.249,0,0,1-1.132-1.353c.018-.242.032-.436.039-.573s.007-.325.007-.582a14.1,14.1,0,0,0-4.187-10.015,14.284,14.284,0,0,0-10.1-4.176h-13.488a14.284,14.284,0,0,0-10.1,4.176,14.1,14.1,0,0,0-4.188,10.015c0,.259,0,.46.009.6s.02.35.043.6h0a1.252,1.252,0,0,1-.132.683,1.23,1.23,0,0,1-1.664.539l-1.828-.956a2.7,2.7,0,0,0-2-.181,2.667,2.667,0,0,0-1.554,1.184.554.554,0,0,1-.037.063l-.043.077a2.318,2.318,0,0,0-.164,1.706,2.344,2.344,0,0,0,1.068,1.355c.064.04.105.061.117.067l.516.269,0,0c.035.019.067.037.1.058a1.256,1.256,0,0,1,.376,1.725,14.143,14.143,0,0,0-1.616,3.6,14.089,14.089,0,0,0,3.642,13.906,14.291,14.291,0,0,0,10.1,4.175h26.686a14.29,14.29,0,0,0,10.1-4.175,14.081,14.081,0,0,0,3.72-13.618Z" transform="translate(-3674.4 -9552.951)"/><path class="d" d="M7128.708,21989.449c1.529-2.752-6.026-10.229-8.955-5.076C7117.306,21988.674,7127.267,21992.033,7128.708,21989.449Z" transform="translate(-7111.506 -21947.834)"/><path d="M6577.255,21446.111c.333-.6-.415-1.9-1.526-3.053a8.123,8.123,0,0,0-1.468-1.205,5.03,5.03,0,0,0-1.506-.658,1.984,1.984,0,0,0-2.307,1.076,1.658,1.658,0,0,0,.491,2.076,5.99,5.99,0,0,0,1.39.994l0,0a9.576,9.576,0,0,0,1.788.721C6575.6,21446.488,6576.988,21446.59,6577.255,21446.111Zm.232-4.8c1.819,1.879,2.839,4.385,1.924,6.027-.895,1.609-3.464,1.857-5.958,1.143a11.807,11.807,0,0,1-2.282-.92,8.633,8.633,0,0,1-1.965-1.426,3.974,3.974,0,0,1-.9-5.109,4.271,4.271,0,0,1,4.977-2.268,7.381,7.381,0,0,1,2.271.973A10.407,10.407,0,0,1,6577.488,21441.307Z" transform="translate(-6561.133 -21405.104)"/><path d="M26065.166,19039.84c-.914-1.641.105-4.148,1.922-6.029a10.551,10.551,0,0,1,1.932-1.576,7.211,7.211,0,0,1,2.273-.971,4.259,4.259,0,0,1,4.975,2.268,3.972,3.972,0,0,1-.895,5.105,8.642,8.642,0,0,1-1.969,1.422,11.316,11.316,0,0,1-2.283.924C26068.633,19041.7,26066.059,19041.449,26065.166,19039.84Zm3.68-4.275c-1.109,1.15-1.857,2.453-1.525,3.049.27.484,1.658.383,3.137-.043a9.018,9.018,0,0,0,1.789-.725h0a6.05,6.05,0,0,0,1.391-.992,1.665,1.665,0,0,0,.49-2.08,1.983,1.983,0,0,0-2.307-1.07,4.9,4.9,0,0,0-1.51.658A8.184,8.184,0,0,0,26068.846,19035.564Z" transform="translate(-26013.727 -19003.18)"/><path d="M12874.241,22710.51a1.255,1.255,0,0,1,0-2.51h16.176a1.255,1.255,0,0,1,0,2.51Z" transform="translate(-12852.007 -22671.553)"/><path d="M12874.241,24522.51a1.255,1.255,0,0,1,0-2.51h16.176a1.255,1.255,0,0,1,0,2.51Z" transform="translate(-12852.007 -24479.361)"/><path class="d" d="M9329.044,11982.737a15.839,15.839,0,0,1-4.947.43h-27.19a9.914,9.914,0,0,1-3.906-.7c.089-6.524,2.008-10.55,6.755-12.709,2.757-1.255,5.986-1.127,11.765-1.154,3.544-.012,6.337-.167,8.919.531C9326.057,11970.653,9329.474,11974.409,9329.044,11982.737Z" transform="translate(-9280.178 -11956.961)"/><g class="i" transform="translate(12.822 11.62)"><g transform="translate(2.768 4.329)"><path class="g" d="M10542.044,13855.295a15.9,15.9,0,0,1-4.944.431h-27.188a9.939,9.939,0,0,1-3.911-.7c.09-6.524,2.009-10.552,6.758-12.711,2.754-1.254,5.984-1.124,11.762-1.15,3.545-.018,6.339-.17,8.919.527C10539.058,13843.21,10542.474,13846.966,10542.044,13855.295Z" transform="translate(-10506 -13841.137)"/></g></g><path class="h" d="M9329.044,11982.737a15.839,15.839,0,0,1-4.947.43h-27.19a9.914,9.914,0,0,1-3.906-.7c.089-6.524,2.008-10.55,6.755-12.709,2.757-1.255,5.986-1.127,11.765-1.154,3.544-.012,6.337-.167,8.919.531C9326.057,11970.653,9329.474,11974.409,9329.044,11982.737Z" transform="translate(-9280.178 -11956.961)"/><path d="M8864.646,11518.945a14.457,14.457,0,0,1-4.682.48h-.594v0h-27.189a11.221,11.221,0,0,1-2.013-.143,14.431,14.431,0,0,1-2.232-.615,1.074,1.074,0,0,1-.723-1.082,18.763,18.763,0,0,1,1.749-8.429,11.342,11.342,0,0,1,5.632-5.205c2.693-1.225,5.657-1.229,10.588-1.238l3.114-.02a28.3,28.3,0,0,1,7.69.575,12.135,12.135,0,0,1,7.165,4.67c1.64,2.366,2.456,5.609,2.228,10.032A1.074,1.074,0,0,1,8864.646,11518.945Zm-4.673-1.668a16.849,16.849,0,0,0,3.312-.2c.074-3.5-.6-6.059-1.871-7.9a10.115,10.115,0,0,0-5.978-3.825,26.719,26.719,0,0,0-7.12-.509l-3.134.019c-4.645.01-7.436.014-9.72,1.052a9.255,9.255,0,0,0-4.616,4.233,15.9,15.9,0,0,0-1.49,6.719,9.911,9.911,0,0,0,1.171.288,9.575,9.575,0,0,0,1.654.108h27.189v0Z" transform="translate(-8815.452 -11492.143)"/><ellipse class="e" cx="21.213" cy="20.786" rx="21.213" ry="20.786" transform="translate(37.575 3.25)"/><g transform="translate(41.628 6.653)"><path d="M21932.16,9822.786a1.393,1.393,0,0,1,0-2.786,17,17,0,0,1,12.133,5.09,17.548,17.548,0,0,1,0,24.582,17,17,0,0,1-24.268,0,17.478,17.478,0,0,1,4.246-27.726,1.365,1.365,0,0,1,1.85.6,1.4,1.4,0,0,1-.592,1.872,14.705,14.705,0,0,0-3.557,23.285,14.277,14.277,0,0,0,20.373,0,14.722,14.722,0,0,0,0-20.64A14.273,14.273,0,0,0,21932.16,9822.786Z" transform="translate(-21915.002 -9820)"/><path d="M28877,13636.395a1.376,1.376,0,1,1,2.752,0v7.807h4.219a1.395,1.395,0,0,1,0,2.789h-5.592a1.386,1.386,0,0,1-1.379-1.395Z" transform="translate(-28861.111 -13626.183)"/><path d="M23626.279,10597.634a1.371,1.371,0,0,1-1.607-1.1,1.391,1.391,0,0,1,1.084-1.635l4.623-.915a1.376,1.376,0,0,1,1.613,1.1,1.4,1.4,0,0,1-.236,1.085l-2.26,3.691a1.355,1.355,0,0,1-1.883.45,1.394,1.394,0,0,1-.449-1.909l.658-1.071Z" transform="translate(-23620.746 -10592.171)"/><path d="M28786.453,9822.906a1.373,1.373,0,1,1,2.742-.12l.211,4.608a1.373,1.373,0,1,1-2.742.119Z" transform="translate(-28770.768 -9821.451)"/></g></g></g></svg>