<svg xmlns="http://www.w3.org/2000/svg" xmlns:xlink="http://www.w3.org/1999/xlink" width="100" height="100" viewBox="0 0 100 100"><defs><style>.a{clip-rule:evenodd;}.b,.g{fill:none;}.c{fill:#12b7ba;}.d{fill:#fff;}.d,.f,.g,.h{fill-rule:evenodd;}.e{clip-path:url(#a);}.f{fill:#fcc123;}</style><clipPath id="a"><path class="a" d="M8381.755,5491h27.492a3.743,3.743,0,0,1,3.753,3.71v53.575a3.744,3.744,0,0,1-3.753,3.715h-27.492a3.746,3.746,0,0,1-3.755-3.715V5494.71A3.744,3.744,0,0,1,8381.755,5491Z" transform="translate(-8378 -5491)"/></clipPath></defs><rect class="b" width="100" height="100"/><g transform="translate(3 8)"><circle class="c" cx="30" cy="30" r="30" transform="translate(0)"/><path class="d" d="M8381.783,5491h27.7a3.779,3.779,0,0,1,3.782,3.751v54.174a3.78,3.78,0,0,1-3.782,3.757h-27.7a3.781,3.781,0,0,1-3.783-3.757v-54.174A3.779,3.779,0,0,1,8381.783,5491Z" transform="translate(-8345.894 -5470.106)"/><g class="e" transform="translate(32 20)"><g transform="translate(-1.426 4.414)"><path class="f" d="M9618.419,6664h26.446v52.872a2.279,2.279,0,0,1-.687,1.626,2.328,2.328,0,0,1-1.642.677H9616v-52.782A2.413,2.413,0,0,1,9618.419,6664Z" transform="translate(-9609.865 -6664)"/><path d="M8004.427,17816.822a1.41,1.41,0,1,1,0-2.82h34.448a1.41,1.41,0,1,1,0,2.82Z" transform="translate(-8003.001 -17772.045)"/><path d="M11798.424,19507.8a1.4,1.4,0,1,1,0-2.8l6.146.01a1.4,1.4,0,1,1,0,2.8Z" transform="translate(-11782.57 -19456.678)"/></g></g><path class="g" d="M8381.783,5491h27.7a3.779,3.779,0,0,1,3.782,3.751v54.174a3.78,3.78,0,0,1-3.782,3.757h-27.7a3.781,3.781,0,0,1-3.783-3.757v-54.174A3.779,3.779,0,0,1,8381.783,5491Z" transform="translate(-8345.894 -5470.106)"/><path d="M8008.221,5116h27.7a5.217,5.217,0,0,1,3.683,1.523h0a5.136,5.136,0,0,1,1.533,3.657v54.174a5.146,5.146,0,0,1-1.533,3.66,5.223,5.223,0,0,1-3.687,1.518h-27.7a5.23,5.23,0,0,1-3.687-1.518l-.08-.087a5.144,5.144,0,0,1-1.452-3.573V5121.18a5.153,5.153,0,0,1,1.532-3.654l0,0A5.219,5.219,0,0,1,8008.221,5116Zm27.7,2.851h-27.7a2.341,2.341,0,0,0-2.347,2.33v54.174a2.306,2.306,0,0,0,.629,1.586l.062.057a2.348,2.348,0,0,0,1.656.685h27.7a2.346,2.346,0,0,0,1.655-.685,2.311,2.311,0,0,0,.689-1.643V5121.18a2.309,2.309,0,0,0-.689-1.641v-.007A2.339,2.339,0,0,0,8035.92,5118.851Z" transform="translate(-7972.331 -5096.533)"/><path class="d" d="M13130.751,3825.168v-31.336a2.832,2.832,0,0,0-2.819-2.832h-31.2a2.832,2.832,0,0,0-2.817,2.832v16.835l-5.434,2.8a1.75,1.75,0,0,0,0,2.851l5.434,2.809v6.036a2.832,2.832,0,0,0,2.817,2.832h31.2A2.832,2.832,0,0,0,13130.751,3825.168Z" transform="translate(-13037.752 -3777.001)"/><path d="M12793.555,3489.488v-31.37a1.544,1.544,0,0,0-.459-1.1,1.567,1.567,0,0,0-1.1-.456H12760.4a1.562,1.562,0,0,0-1.1.456,1.541,1.541,0,0,0-.46,1.1v16.853a1.28,1.28,0,0,1-.787,1.18l-5.422,2.77c.009,0,.019,0,.016.008a.645.645,0,0,0-.054.278.663.663,0,0,0,.054.281l.007.019,5.483,2.8a1.276,1.276,0,0,1,.7,1.138l0,6.042a1.54,1.54,0,0,0,.46,1.1,1.562,1.562,0,0,0,1.1.456h31.594a1.567,1.567,0,0,0,1.1-.456A1.543,1.543,0,0,0,12793.555,3489.488Zm2.584-31.37v31.37a4.133,4.133,0,0,1-4.146,4.117H12760.4a4.153,4.153,0,0,1-2.932-1.206,4.094,4.094,0,0,1-1.215-2.911v-5.262l-4.8-2.454a2.51,2.51,0,0,1-1.051-1.024l-.049-.087a3.188,3.188,0,0,1,0-2.9,2.532,2.532,0,0,1,1.1-1.115l4.8-2.45v-16.073a4.094,4.094,0,0,1,1.215-2.911,4.171,4.171,0,0,1,2.932-1.206h31.594a4.173,4.173,0,0,1,2.932,1.206A4.115,4.115,0,0,1,12796.139,3458.118Zm-43.5,21.377c-.006,0-.014,0-.006,0Z" transform="translate(-12701.14 -3440.856)"/><g transform="translate(64.345 22.158)"><path d="M18018.346,5836.729v6.218a1.69,1.69,0,0,1-1.672,1.632,1.642,1.642,0,0,1-1.168-.483,1.517,1.517,0,0,1-.5-1.149v-18.139a1.731,1.731,0,0,1,.561-1.267,1.874,1.874,0,0,1,1.354-.541h4.469a9.032,9.032,0,0,1,3.4.57,6.143,6.143,0,0,1,2.266,1.542,5.8,5.8,0,0,1,1.244,2.2,8.758,8.758,0,0,1,.383,2.6,7.759,7.759,0,0,1-.52,2.911,5.65,5.65,0,0,1-1.477,2.142,6.441,6.441,0,0,1-2.293,1.313,9.259,9.259,0,0,1-3.008.453Zm0-3.078h3.039q3.949,0,3.947-3.771a5.722,5.722,0,0,0-.164-1.374,3,3,0,0,0-.605-1.206,3.176,3.176,0,0,0-1.2-.86,4.984,4.984,0,0,0-1.975-.335h-3.039Z" transform="translate(-18010.309 -5823)"/><path class="h" d="M16791.521,8626h8.74a1.517,1.517,0,0,1,1.521,1.508v0a1.517,1.517,0,0,1-1.521,1.507h-8.74a1.517,1.517,0,0,1-1.521-1.507v0A1.517,1.517,0,0,1,16791.521,8626Z" transform="translate(-16790 -8615.334)"/><path class="h" d="M16791.521,9770h10.635a1.514,1.514,0,0,1,1.521,1.511h0a1.517,1.517,0,0,1-1.521,1.511h-10.635a1.52,1.52,0,0,1-1.521-1.511h0A1.517,1.517,0,0,1,16791.521,9770Z" transform="translate(-16790 -9754.982)"/></g></g></svg>