<svg xmlns="http://www.w3.org/2000/svg" width="100" height="100" viewBox="0 0 100 100"><defs><style>.a{fill:none;}.b{fill:#12b7ba;}.c{fill:#fff;}.c,.d,.e{fill-rule:evenodd;}.d{fill:#fcc123;}.e{fill:#fbf8f4;}</style></defs><rect class="a" width="100" height="100"/><g transform="translate(8 8)"><circle class="b" cx="30" cy="30" r="30"/><g transform="translate(19 26)"><path d="M4610,4764.447a1.451,1.451,0,0,1,2.9,0v30.974a1.451,1.451,0,0,1-2.9,0Zm0,39.294a1.451,1.451,0,0,1,2.9,0v13.819a1.451,1.451,0,0,1-2.9,0Z" transform="translate(-4602.493 -4763)"/><path class="c" d="M3584.974,10308h7.053a3.98,3.98,0,0,1,3.986,3.953h0a4,4,0,0,1-3.986,3.97h-7.053a3.988,3.988,0,0,1-3.974-3.97h0a3.986,3.986,0,0,1,3.974-3.953Z" transform="translate(-3579.552 -10275.531)"/><path d="M3340.422,10062h7.054a5.441,5.441,0,0,1,3.838,1.58,5.343,5.343,0,0,1,0,7.629v.007a5.43,5.43,0,0,1-3.838,1.592v0l-7.054-.006v.006a5.434,5.434,0,0,1-5.422-5.411h.006a5.42,5.42,0,0,1,5.416-5.392Zm7.054,2.888h-7.054a2.519,2.519,0,0,0-2.525,2.5h.006a2.526,2.526,0,0,0,2.52,2.524v.006h7.054v-.006a2.548,2.548,0,0,0,1.79-.743,2.5,2.5,0,0,0,.006-3.551A2.543,2.543,0,0,0,3347.476,10064.888Z" transform="translate(-3335 -10030.973)"/><path d="M7275,4765.44a1.446,1.446,0,0,1,2.891,0l.005,18.755a1.445,1.445,0,0,1-2.891,0Zm.006,27.151a1.445,1.445,0,0,1,2.891,0l-.005,25.962a1.446,1.446,0,0,1-2.891,0Z" transform="translate(-7251.803 -4763.994)"/><path class="c" d="M6256.021,8258h-7.047a3.987,3.987,0,0,0-3.975,3.964h0a3.993,3.993,0,0,0,3.991,3.953h7.03a3.993,3.993,0,0,0,3.992-3.953h0a3.991,3.991,0,0,0-3.992-3.964Z" transform="translate(-6227.867 -8237.535)"/><path d="M6011.47,8013.886h-7.048a2.548,2.548,0,0,0-2.521,2.524,2.474,2.474,0,0,0,.743,1.769,2.553,2.553,0,0,0,1.8.743h7.03a2.544,2.544,0,0,0,1.8-.743,2.471,2.471,0,0,0,.742-1.769h.005a2.514,2.514,0,0,0-.754-1.78h0A2.538,2.538,0,0,0,6011.47,8013.886Zm-7.048-2.887h7.048a5.436,5.436,0,0,1,3.844,1.588v0a5.412,5.412,0,0,1,1.6,3.818h.006a5.358,5.358,0,0,1-1.608,3.812,5.457,5.457,0,0,1-3.838,1.586h-7.03a5.456,5.456,0,0,1-3.838-1.586,5.408,5.408,0,0,1,3.82-9.223Z" transform="translate(-5983.315 -7991.981)"/><path d="M9939,4764.447a1.451,1.451,0,0,1,2.9,0v6.511a1.451,1.451,0,0,1-2.9,0Zm0,14.972a1.451,1.451,0,0,1,2.9,0v38.142a1.451,1.451,0,0,1-2.9,0Z" transform="translate(-9900.119 -4763)"/><path class="c" d="M8924.021,6179h-7.047a3.992,3.992,0,0,0-3.975,3.969h0a3.99,3.99,0,0,0,3.985,3.952h7.036a3.99,3.99,0,0,0,3.985-3.952h0a3.993,3.993,0,0,0-3.985-3.969Z" transform="translate(-8880.158 -6170.708)"/><path d="M8678.476,5934.893h-7.047a2.5,2.5,0,0,0-1.78,4.286,2.544,2.544,0,0,0,1.792.743h7.035a2.543,2.543,0,0,0,1.79-.743,2.472,2.472,0,0,0,.746-1.762h.006a2.53,2.53,0,0,0-.758-1.786l-.059-.06A2.513,2.513,0,0,0,8678.476,5934.893Zm-7.047-2.893h7.047a5.437,5.437,0,0,1,3.75,1.511l.088.082a5.382,5.382,0,0,1,1.6,3.825h0a5.356,5.356,0,0,1-1.606,3.805,5.437,5.437,0,0,1-3.832,1.587h-7.035a5.442,5.442,0,0,1-3.834-1.587,5.339,5.339,0,0,1-.012-7.624A5.418,5.418,0,0,1,8671.429,5932Z" transform="translate(-8634.613 -5925.154)"/><path class="c" d="M11581.992,11078h7.047a3.986,3.986,0,0,1,3.975,3.963h0a3.992,3.992,0,0,1-3.991,3.953h-7.03a3.993,3.993,0,0,1-3.992-3.953h0a4,4,0,0,1,3.992-3.963Z" transform="translate(-11529.468 -11041.023)"/><path d="M11337.439,10831h7.05a5.445,5.445,0,0,1,5.428,5.41,5.374,5.374,0,0,1-1.608,3.813,5.465,5.465,0,0,1-3.839,1.586h-7.03a5.461,5.461,0,0,1-3.839-1.586,5.355,5.355,0,0,1-1.6-3.812h.006a5.377,5.377,0,0,1,1.589-3.823A5.451,5.451,0,0,1,11337.439,10831Zm7.05,2.887h-7.05a2.558,2.558,0,0,0-2.544,2.523h.008a2.461,2.461,0,0,0,.741,1.767,2.544,2.544,0,0,0,1.795.739h7.03a2.537,2.537,0,0,0,1.795-.739,2.454,2.454,0,0,0,.742-1.767,2.526,2.526,0,0,0-2.518-2.523Z" transform="translate(-11284.917 -10795.469)"/><path d="M12606,4764.447a1.454,1.454,0,0,1,2.908,0v35.289a1.454,1.454,0,0,1-2.908,0Zm0,43.791a1.454,1.454,0,0,1,2.908,0v9.322a1.454,1.454,0,0,1-2.908,0Z" transform="translate(-12551.415 -4763)"/><path class="d" d="M12378.318,11329.028a3.049,3.049,0,0,1-1.319-2.5h0a3.085,3.085,0,0,1,1.319-2.524h5.017a2.529,2.529,0,0,1,2.521,2.524,2.463,2.463,0,0,1-.743,1.769,2.537,2.537,0,0,1-1.8.736Z" transform="translate(-12323.764 -11285.582)"/><path class="d" d="M4381.319,10557.028a3.044,3.044,0,0,1-1.319-2.5h0a3.082,3.082,0,0,1,1.319-2.524h5.016a2.527,2.527,0,0,1,2.52,2.524,2.467,2.467,0,0,1-.742,1.768,2.541,2.541,0,0,1-1.8.736Z" transform="translate(-4373.847 -10518.104)"/><path class="d" d="M7045.319,8509.035a3.068,3.068,0,0,1-1.319-2.512h0a3.088,3.088,0,0,1,1.319-2.523h5.016a2.536,2.536,0,0,1,2.52,2.523,2.477,2.477,0,0,1-.741,1.769,2.541,2.541,0,0,1-1.8.743Z" transform="translate(-7022.163 -8482.096)"/><path class="e" d="M9712.32,6431.029a3.055,3.055,0,0,1-1.32-2.511h0a3.067,3.067,0,0,1,1.32-2.518h5.014a2.5,2.5,0,0,1,1.779,4.286,2.54,2.54,0,0,1-1.791.743Z" transform="translate(-9673.461 -6416.263)"/></g></g></svg>