<svg xmlns="http://www.w3.org/2000/svg" width="30" height="30" viewBox="0 0 30 30"><defs><style>.a{fill-rule:evenodd;}</style></defs><g transform="translate(-0.067 -0.226)"><path class="a" d="M11.565,10.473c-.015-.159,0-.161.112-.256a1.1,1.1,0,0,1,.264-.154,5.63,5.63,0,0,1,1.932-.457,5.359,5.359,0,0,1,2.714.466c.368.286.3.741.3,1.269s-.04,1.045-.058,1.573c-.023.662-.269,2.6.554,2.586.85-.017,2.35-2.959,2.7-3.69.639-1.334.4-1.606,1.555-1.6,1.048,0,2.184-.043,3.22,0,2.171.091-1.912,4.541-2.567,5.636-.5.84.044,1.285.814,1.969.2.181,3.442,3.093,2.13,3.663a14.206,14.206,0,0,1-3.061.114,2.506,2.506,0,0,1-2.333-.882,14.17,14.17,0,0,0-1.552-1.628c-1.045-.721-1.4.342-1.466,1.276-.1,1.373-.065,1.238-1.958,1.234a7.334,7.334,0,0,1-2.643-.525c-2.747-1.157-4.569-4.317-5.964-6.81-.437-.78-1.209-2.309-1.568-3.181-.281-.683.059-.832.678-.83.52,0,2.851-.062,3.167.037.374.117.506.612.644.925.364.823,2.536,5.5,3.361,4.014a6.03,6.03,0,0,0-.028-4.082C12.174,10.544,11.8,10.644,11.565,10.473ZM3.088.285A3.539,3.539,0,0,0,.775,1.7c-.7.955-.7,1.652-.7,3.067V25.355a12.373,12.373,0,0,0,.044,1.855,3.636,3.636,0,0,0,1.415,2.308c.961.715,1.622.692,3.085.692H25.188a14.212,14.212,0,0,0,1.889-.031,3.679,3.679,0,0,0,2.284-1.432,4.345,4.345,0,0,0,.694-3.061V5.1a12.744,12.744,0,0,0-.044-1.859A3.624,3.624,0,0,0,28.6.942c-1-.737-1.631-.7-3.078-.7H4.954A11.342,11.342,0,0,0,3.088.285Z" transform="translate(0)"/></g></svg>